# Blender 3.3.0
# www.blender.org
mtllib cattail.mtl
o Cube
v -0.112474 9.723562 -0.078636
v 0.117447 -0.364711 -0.117825
v -0.339290 9.681911 -0.078636
v -0.113161 -0.364711 -0.117825
v -0.112474 9.723562 0.126925
v 0.117447 -0.364711 0.087736
v -0.339290 9.681911 0.126925
v -0.113161 -0.364711 0.087736
v -0.112474 9.723562 -0.078636
v 0.264890 10.152657 -0.214499
v -0.026549 10.133536 -0.496260
v -0.339290 9.681911 -0.078636
v -0.848702 9.948160 -0.214499
v -0.569484 10.033834 -0.496260
v -0.112474 9.723562 0.126925
v 0.264890 10.152657 0.292878
v -0.026549 10.133536 0.574638
v -0.339290 9.681911 0.126925
v -0.848702 9.948160 0.292878
v -0.569484 10.033834 0.574638
v -1.237998 13.649532 -0.215063
v -1.455839 13.249858 -0.214499
v -1.164391 13.268852 -0.496260
v -0.687531 13.750371 -0.215063
v -0.342158 13.453873 -0.214499
v -0.621413 13.368320 -0.496260
v -1.237998 13.649532 0.293442
v -1.455839 13.249858 0.292878
v -1.164391 13.268852 0.574638
v -0.687531 13.750371 0.293442
v -0.342158 13.453873 0.292878
v -0.621413 13.368320 0.574638
v 0.103081 4.844409 0.079536
v 1.169360 6.821872 0.379001
v 0.098551 5.077148 0.079536
v 1.036713 6.881069 0.379001
v 0.103081 4.844409 -0.098151
v 1.169360 6.821872 -0.481252
v 0.098551 5.077148 -0.098151
v 1.036713 6.881069 -0.481252
v 1.601354 8.530940 0.380893
v 1.468706 8.590137 0.380893
v 1.601354 8.530940 -0.479360
v 1.468706 8.590137 -0.479360
v 2.649757 9.614163 0.366630
v 2.517109 9.673361 0.366630
v 2.649757 9.614163 -0.493623
v 2.517109 9.673361 -0.493623
v 3.377276 9.996144 -0.037602
v -0.113161 4.660438 0.087736
v -0.113161 7.173012 0.087736
v 0.117447 4.660438 0.087736
v 0.117447 7.173012 0.087736
v 0.117447 4.660438 -0.117825
v 0.117447 7.173012 -0.117825
v -0.113161 4.660438 -0.117825
v -0.113161 7.173012 -0.117825
vn 1.0000 -0.0000 -0.0000
vn -0.0000 -0.0000 1.0000
vn -1.0000 -0.0000 -0.0000
vn -0.0000 0.0154 -0.9999
vn -0.0000 -1.0000 -0.0000
vn -0.4632 -0.8862 -0.0000
vn 0.7509 -0.6604 -0.0000
vn 0.1365 -0.7435 0.6546
vn -0.1806 0.9836 -0.0000
vn 0.1324 -0.7208 -0.6804
vn 0.5499 -0.6498 -0.5247
vn 0.5379 -0.6706 0.5109
vn -0.2625 -0.8196 0.5093
vn -0.2810 -0.8046 -0.5231
vn -0.0000 -0.0000 -1.0000
vn 0.6852 0.1260 0.7174
vn -0.9835 -0.1809 -0.0000
vn 0.9835 0.1809 -0.0000
vn 0.6514 0.7588 -0.0000
vn -0.8780 0.4786 -0.0000
vn -0.1058 0.5775 0.8095
vn 0.1802 -0.9836 -0.0000
vn -0.1058 0.5775 -0.8095
vn -0.6607 0.3592 -0.6592
vn -0.6607 0.3592 0.6592
vn 0.4905 0.5700 0.6592
vn 0.4905 0.5700 -0.6592
vn 0.6852 0.1260 -0.7174
vn -0.6852 -0.1260 0.7173
vn -0.6852 -0.1260 -0.7173
vn -0.1560 -0.0733 0.9850
vn -0.8872 0.4614 -0.0000
vn -0.1977 -0.0929 -0.9758
vn 0.8802 -0.4746 -0.0000
vn -0.9998 -0.0195 -0.0000
vn -0.9695 0.2451 -0.0000
vn -0.0041 -0.0092 -0.9999
vn 0.0004 0.0010 -1.0000
vn -0.0004 -0.0010 1.0000
vn 0.9695 -0.2451 -0.0000
vn 0.4649 -0.8854 -0.0000
vn 0.0041 0.0092 0.9999
vn 0.7186 -0.6955 -0.0000
vn -0.7186 0.6955 -0.0000
vn -0.3513 0.9362 -0.0000
vn 0.2352 0.5270 -0.8167
vn 0.2163 0.4848 0.8475
vn -0.9960 -0.0898 -0.0000
vn -0.0000 -0.0154 0.9999
vn 0.0028 -0.0154 0.9999
vn -0.0028 0.0154 -0.9999
vn 0.9960 0.0898 -0.0000
vt 0.950380 0.790915
vt 0.910026 0.944748
vt 0.225904 0.908706
vt 0.859759 0.854180
vt 0.909865 0.879403
vt 0.950006 0.728516
vt 0.163667 0.908699
vt 0.225904 0.972110
vt 0.859761 0.790739
vt 0.817682 0.701325
vt 0.848847 0.956172
vt 0.288140 0.908699
vt 0.908302 0.764591
vt 0.848686 0.890826
vt 0.818055 0.638927
vt 0.288139 0.972103
vt 0.908300 0.701149
vt 0.225904 0.908699
vt 0.350376 0.908699
vt 0.586572 0.262300
vt 0.557071 0.187897
vt 0.557018 0.868382
vt 0.495803 0.245413
vt 0.842521 0.048132
vt 0.495771 0.810819
vt 0.350376 0.971089
vt 0.586557 0.307065
vt 0.556997 0.407680
vt 0.863758 0.163204
vt 0.495767 0.352568
vt 0.288140 0.908699
vt 0.631257 0.262309
vt 0.667364 0.187919
vt 0.667313 0.868385
vt 0.728595 0.245458
vt 0.728564 0.810825
vt 0.842521 0.048132
vt 0.288139 0.971089
vt 0.631242 0.307074
vt 0.667291 0.407701
vt 0.728559 0.352613
vt 0.821284 0.163204
vt 0.951944 0.603273
vt 0.556897 0.571292
vt 0.557034 0.528273
vt 0.863758 0.293442
vt 0.495771 0.585856
vt 0.495803 0.470733
vt 0.800630 0.603251
vt 0.556894 0.680008
vt 0.557015 0.748244
vt 0.842521 0.178361
vt 0.495767 0.693093
vt 0.951944 0.449316
vt 0.667437 0.571295
vt 0.667327 0.528295
vt 0.728564 0.585862
vt 0.728595 0.470778
vt 0.821284 0.293442
vt 0.800630 0.449295
vt 0.667433 0.680011
vt 0.667309 0.748247
vt 0.728560 0.693099
vt 0.842521 0.178360
vt 0.303995 0.308924
vt 0.823130 0.335587
vt 0.880670 0.076639
vt 0.245583 0.491912
vt 0.303997 0.308097
vt 0.099163 0.846838
vt 0.821284 0.335587
vt 0.245771 0.469030
vt 0.045890 0.699652
vt 0.878479 0.048132
vt 0.337730 0.309199
vt 0.823130 0.293442
vt 0.872214 0.367806
vt 0.408910 0.493242
vt 0.129966 0.846554
vt 0.337732 0.308372
vt 0.821284 0.293442
vt 0.409098 0.470361
vt 0.195019 0.698276
vt 0.870023 0.396313
vt 0.874406 0.170310
vt 0.244577 0.566054
vt 0.872214 0.141803
vt 0.044938 0.631711
vt 0.865950 0.274134
vt 0.407904 0.567385
vt 0.863758 0.302641
vt 0.194067 0.630335
vt 0.880670 0.396313
vt 0.245771 0.746621
vt 0.045697 0.445721
vt 0.878479 0.367806
vt 0.045890 0.466617
vt 0.872214 0.048132
vt 0.409098 0.747952
vt 0.194826 0.444345
vt 0.870023 0.076639
vt 0.195019 0.465241
vt 0.321474 0.872605
vt 0.114717 0.330506
vt 0.862962 0.701149
vt 0.622680 0.261869
vt 0.840294 0.701149
vt 0.225904 0.974321
vt 0.862965 0.764591
vt 0.848793 0.891321
vt 0.840296 0.764591
vt 0.848847 0.891568
vt 0.905097 0.854180
vt 0.909972 0.879898
vt 0.927766 0.854180
vt 0.910026 0.880145
vt 0.905099 0.790739
vt 0.577995 0.261861
vt 0.927768 0.790739
vt 0.163667 0.974321
s 0
usemtl plant
f 53/112/1 52/110/1 54/114/1
f 52/109/2 53/111/2 51/107/2
f 8/18/3 57/120/3 4/7/3
f 1/1/4 55/115/4 57/119/4
f 2/3/5 6/12/5 8/16/5 4/8/5
f 12/27/6 18/39/6 19/40/6 13/28/6
f 10/21/7 16/33/7 15/32/7 9/20/7
f 18/39/8 15/32/8 17/35/8 20/41/8
f 9/19/9 12/26/9 18/38/9 15/31/9
f 12/27/10 14/30/10 11/23/10 9/20/10
f 9/20/11 11/23/11 10/21/11
f 15/32/12 16/33/12 17/35/12
f 18/39/13 20/41/13 19/40/13
f 12/27/14 13/28/14 14/30/14
f 14/29/15 23/46/15 26/52/15 11/24/15
f 16/34/16 31/62/16 32/63/16 17/36/16
f 19/40/17 28/56/17 22/45/17 13/28/17
f 10/22/18 25/51/18 31/62/18 16/34/18
f 24/50/19 30/61/19 31/62/19 25/51/19
f 22/45/20 28/56/20 27/55/20 21/44/20
f 30/61/21 27/55/21 29/57/21 32/63/21
f 21/43/22 24/49/22 30/60/22 27/54/22
f 24/50/23 26/53/23 23/47/23 21/44/23
f 21/44/24 23/47/24 22/45/24
f 27/55/25 28/56/25 29/57/25
f 30/61/26 32/63/26 31/62/26
f 24/50/27 25/51/27 26/53/27
f 11/25/28 26/53/28 25/51/28 10/22/28
f 20/41/29 29/58/29 28/56/29 19/40/29
f 13/28/30 22/45/30 23/48/30 14/30/30
f 17/37/2 32/64/2 29/59/2 20/42/2
f 33/65/31 34/68/31 36/72/31 35/69/31
f 35/70/32 36/73/32 40/83/32 39/79/32
f 39/80/33 40/82/33 38/78/33 37/75/33
f 37/75/34 38/78/34 34/68/34 33/65/34
f 35/71/35 39/81/35 37/76/35 33/66/35
f 40/83/36 36/73/36 42/88/36 44/92/36
f 43/89/37 44/91/37 48/101/37 47/98/37
f 38/77/38 40/84/38 44/91/38 43/89/38
f 36/74/39 34/67/39 41/85/39 42/87/39
f 34/68/40 38/78/40 43/90/40 41/86/40
f 45/94/41 47/99/41 49/103/41
f 42/87/42 41/85/42 45/93/42 46/96/42
f 41/86/43 43/90/43 47/99/43 45/94/43
f 44/92/44 42/88/44 46/97/44 48/102/44
f 48/102/45 46/97/45 49/104/45
f 47/100/46 48/102/46 49/104/46
f 46/97/47 45/95/47 49/104/47
f 57/118/48 51/106/48 18/39/48 12/27/48
f 53/111/49 5/10/49 51/107/49
f 5/10/50 7/15/50 51/107/50
f 51/107/2 50/105/2 52/109/2
f 50/105/2 8/17/2 6/13/2
f 52/109/2 50/105/2 6/13/2
f 54/113/15 2/4/15 56/117/15
f 2/4/15 4/9/15 56/117/15
f 56/117/15 57/119/15 54/113/15
f 54/113/15 57/119/15 55/115/15
f 3/6/51 1/1/51 57/119/51
f 52/110/1 6/14/1 2/5/1
f 54/114/1 55/116/1 53/112/1
f 55/116/52 1/2/52 53/112/52
f 52/110/1 2/5/1 54/114/1
f 1/2/52 5/11/52 53/112/52
f 8/18/3 51/108/3 57/120/3
l 50 56
