# Blender 3.3.0
# www.blender.org
mtllib fish2.mtl
o Cylinder
v -2.796769 1.612453 0.000000
v -2.776752 1.760123 0.201247
v 0.992311 2.951552 0.000000
v -1.007512 2.978182 0.000000
v 0.987474 2.588313 0.421387
v -1.012349 2.614943 0.421387
v 0.979648 2.000580 0.612370
v -1.020175 2.027209 0.612370
v 0.971822 1.412847 0.421387
v -1.028001 1.439476 0.421387
v 0.966985 1.049608 0.000000
v -1.240069 1.164751 0.000000
v -2.614557 2.535684 0.000000
v -2.818512 2.219249 0.171661
v -2.817258 1.966721 0.178005
v 2.819394 2.548482 0.000000
v -2.867125 2.172812 0.000000
v -2.879317 1.908303 0.000000
v 2.808175 2.348068 0.250778
v 2.765876 1.968293 0.446615
v 2.778686 1.616068 0.247572
v 2.780596 1.411121 0.000000
v 4.558841 3.177791 0.000000
v 3.897644 1.871950 0.000000
v 3.997031 1.714005 0.000000
v 4.390051 1.079697 0.000000
v 0.743365 3.060185 0.000000
v 0.224381 3.392644 0.000000
v 2.401240 1.335503 0.000000
v 0.456130 2.909327 0.000000
v 2.606801 1.265982 0.000000
v 2.115451 0.831606 0.000000
v 1.510824 1.158013 0.000000
v -1.484475 2.044203 0.509267
v -1.494692 2.060143 0.557905
v -1.587849 2.078795 0.476214
v -1.598066 2.094736 0.524852
v -1.646429 2.166536 0.435152
v -1.656646 2.182477 0.483789
v -1.637840 2.273911 0.401764
v -1.648057 2.289852 0.450402
v -1.565362 2.359906 0.388805
v -1.575579 2.375847 0.437442
v -1.456680 2.391675 0.401223
v -1.466897 2.407616 0.449861
v -1.353306 2.357083 0.434276
v -1.363523 2.373024 0.482914
v -1.294726 2.269342 0.475338
v -1.304943 2.285283 0.523976
v -1.303315 2.161967 0.508726
v -1.313532 2.177908 0.557363
v -1.375793 2.075971 0.521685
v -1.386010 2.091912 0.570323
v -0.379351 2.936930 0.038145
v 0.712550 3.065331 0.036770
v 0.450444 2.929153 0.034349
v -0.440306 2.954505 0.000000
v 2.266207 1.357005 0.056320
v 1.554898 1.206316 0.045965
v -2.776752 1.760123 -0.201247
v 0.987474 2.588313 -0.421387
v -1.012349 2.614943 -0.421387
v 0.979648 2.000580 -0.612370
v -1.020175 2.027209 -0.612370
v 0.971822 1.412847 -0.421387
v -1.028001 1.439476 -0.421387
v -2.818512 2.219249 -0.171661
v -2.817258 1.966721 -0.178005
v 2.808175 2.348068 -0.250778
v 2.765876 1.968293 -0.446615
v 2.778686 1.616068 -0.247572
v -1.484475 2.044203 -0.509267
v -1.494692 2.060143 -0.557905
v -1.587849 2.078795 -0.476214
v -1.598066 2.094736 -0.524852
v -1.646429 2.166536 -0.435152
v -1.656646 2.182477 -0.483789
v -1.637840 2.273911 -0.401764
v -1.648057 2.289852 -0.450402
v -1.565362 2.359906 -0.388805
v -1.575579 2.375847 -0.437442
v -1.456680 2.391675 -0.401223
v -1.466897 2.407616 -0.449861
v -1.353306 2.357083 -0.434276
v -1.363523 2.373024 -0.482914
v -1.294726 2.269342 -0.475338
v -1.304943 2.285283 -0.523976
v -1.303315 2.161967 -0.508726
v -1.313532 2.177908 -0.557363
v -1.375793 2.075971 -0.521685
v -1.386010 2.091912 -0.570323
v -0.379351 2.936930 -0.038145
v 0.712550 3.065331 -0.036770
v 0.450444 2.929153 -0.034349
v 2.266207 1.357005 -0.056320
v 1.554898 1.206316 -0.045965
vn 0.0101 0.7573 0.6529
vn 0.0041 0.3090 0.9511
vn -0.0041 -0.3090 0.9511
vn -0.0267 -0.7937 0.6077
vn -0.2180 0.6788 0.7012
vn -0.2092 0.2251 0.9516
vn -0.1924 -0.2103 0.9585
vn -0.2186 -0.7678 0.6023
vn -0.8183 0.5695 0.0777
vn -0.9551 0.0238 0.2952
vn -0.9250 -0.2120 0.3154
vn 0.1628 0.7541 0.6363
vn 0.1483 -0.7541 0.6398
vn 0.1137 0.3637 0.9245
vn 0.1049 -0.3807 0.9187
vn 0.0634 -0.2548 0.9649
vn -0.2740 0.7572 0.5929
vn 0.2311 0.0165 0.9728
vn 0.2706 -0.2977 0.9155
vn -0.0101 0.0967 0.9953
vn -0.0000 -0.0000 1.0000
vn -0.3716 -0.9025 0.2177
vn -0.8330 -0.5532 0.0063
vn -0.9777 0.0130 -0.2096
vn -0.7428 0.5742 -0.3442
vn -0.2266 0.9105 -0.3460
vn 0.3716 0.9025 -0.2177
vn 0.8330 0.5532 -0.0063
vn 0.9777 -0.0130 0.2096
vn -0.1958 0.3054 0.9319
vn 0.7428 -0.5742 0.3442
vn 0.2266 -0.9105 0.3460
vn 0.1958 -0.3054 -0.9319
vn 0.0043 -0.0261 0.9996
vn 0.4044 -0.7780 0.4807
vn 0.5116 0.7986 0.3170
vn -0.3414 0.5180 0.7843
vn -0.0502 0.1207 -0.9914
vn 0.2787 0.5163 -0.8098
vn -0.2968 -0.8776 -0.3765
vn 0.0101 0.7573 -0.6529
vn 0.0041 0.3090 -0.9511
vn -0.0041 -0.3090 -0.9511
vn -0.0267 -0.7937 -0.6077
vn -0.2180 0.6788 -0.7012
vn -0.2092 0.2251 -0.9516
vn -0.1924 -0.2103 -0.9585
vn -0.2186 -0.7678 -0.6023
vn -0.8183 0.5695 -0.0777
vn -0.9551 0.0238 -0.2952
vn -0.9250 -0.2120 -0.3154
vn 0.1628 0.7541 -0.6363
vn 0.1483 -0.7541 -0.6398
vn 0.1137 0.3637 -0.9245
vn 0.1049 -0.3807 -0.9187
vn 0.0634 -0.2548 -0.9649
vn -0.2740 0.7572 -0.5929
vn 0.2311 0.0165 -0.9728
vn 0.2706 -0.2977 -0.9155
vn -0.0101 0.0967 -0.9953
vn -0.3716 -0.9025 -0.2177
vn -0.8330 -0.5532 -0.0063
vn -0.9777 0.0130 0.2096
vn -0.7428 0.5742 0.3442
vn -0.2266 0.9105 0.3460
vn 0.3716 0.9025 0.2177
vn 0.8330 0.5532 0.0063
vn 0.9777 -0.0130 -0.2096
vn -0.1958 0.3054 -0.9319
vn 0.7428 -0.5742 -0.3442
vn 0.2266 -0.9105 -0.3460
vn 0.1958 -0.3054 0.9319
vn 0.0043 -0.0261 -0.9997
vn 0.4044 -0.7780 -0.4807
vn 0.5116 0.7986 -0.3170
vn -0.3414 0.5180 -0.7843
vn -0.0502 0.1207 0.9914
vn 0.2787 0.5163 0.8098
vn -0.2968 -0.8776 0.3765
vt 0.372642 0.000000
vt 0.412238 0.375879
vt 0.305299 0.009576
vt 0.347124 0.000478
vt 0.391326 0.364420
vt 0.165211 0.514209
vt 0.171471 0.240575
vt 0.212648 0.518672
vt 0.218908 0.245038
vt 0.276020 0.523346
vt 0.282280 0.249712
vt 0.335238 0.513792
vt 0.328978 0.526037
vt 0.335238 0.252403
vt 0.339199 0.245503
vt 0.434068 0.257122
vt 0.391326 0.519261
vt 0.391326 0.220774
vt 0.222383 0.024435
vt 0.407041 0.257122
vt 0.259268 0.000000
vt 0.393274 0.314401
vt 0.284412 0.002246
vt 0.393455 0.343222
vt 0.196952 0.767269
vt 0.411222 0.317529
vt 0.412238 0.348517
vt 0.223661 0.768658
vt 0.266750 0.766962
vt 0.335564 0.748178
vt 0.296103 0.770528
vt 0.434068 0.000000
vt 0.368072 0.751790
vt 0.309615 0.771161
vt 0.126974 1.000000
vt 0.259069 0.920159
vt 0.274249 0.935025
vt 0.335238 0.993888
vt 0.000000 0.000000
vt 0.000000 0.000000
vt 0.434068 0.053783
vt 0.000000 0.000000
vt 0.423500 0.029675
vt 0.391326 0.114666
vt 0.434068 0.180020
vt 0.412238 0.317729
vt -0.000000 0.500000
vt 0.750000 0.490000
vt 0.417413 0.317518
vt 0.419045 0.317518
vt -0.000000 1.000000
vt 0.412238 0.333062
vt 0.900000 0.500000
vt 0.891068 0.444164
vt 0.417413 0.332852
vt 0.900000 1.000000
vt 0.428113 0.317518
vt 0.800000 0.500000
vt 0.978253 0.324164
vt 0.800000 1.000000
vt 0.436721 0.305983
vt 0.700000 0.500000
vt 0.978253 0.175836
vt 0.700000 1.000000
vt 0.441582 0.287320
vt 0.600000 0.500000
vt 0.891068 0.055836
vt 0.600000 1.000000
vt 0.440838 0.268657
vt 0.500000 0.500000
vt 0.750000 0.010000
vt 0.500000 1.000000
vt 0.434774 0.257122
vt 0.400000 0.500000
vt 0.608931 0.055836
vt 0.400000 1.000000
vt 0.425707 0.257122
vt 0.300000 0.500000
vt 0.521746 0.175836
vt 0.300000 1.000000
vt 0.417098 0.268657
vt 0.200000 0.500000
vt 0.521746 0.324164
vt 0.412238 0.287320
vt 0.200000 1.000000
vt 0.100000 0.500000
vt 0.608931 0.444164
vt 0.412982 0.305983
vt 0.100000 1.000000
vt 0.000000 0.000000
vt 0.000000 0.000000
vt 0.000000 0.000000
vt 0.000000 0.000000
vt 0.423500 0.029675
vt 0.391326 0.114666
vt 0.305299 0.009576
vt 0.347124 0.000478
vt 0.391326 0.364420
vt 0.212648 0.518672
vt 0.218908 0.245038
vt 0.276020 0.523346
vt 0.282280 0.249712
vt 0.335238 0.513792
vt 0.328978 0.526037
vt 0.335238 0.252403
vt 0.339199 0.245503
vt 0.259268 0.000000
vt 0.393274 0.314401
vt 0.284412 0.002246
vt 0.393455 0.343222
vt 0.223661 0.768658
vt 0.266750 0.766962
vt 0.335564 0.748178
vt 0.296103 0.770528
vt 0.412238 0.317729
vt -0.000000 0.500000
vt 0.750000 0.490000
vt 0.417413 0.317518
vt 0.419045 0.317518
vt -0.000000 1.000000
vt 0.412238 0.333062
vt 0.900000 0.500000
vt 0.891068 0.444164
vt 0.417413 0.332852
vt 0.900000 1.000000
vt 0.428113 0.317518
vt 0.800000 0.500000
vt 0.978253 0.324164
vt 0.800000 1.000000
vt 0.436721 0.305983
vt 0.700000 0.500000
vt 0.978253 0.175836
vt 0.700000 1.000000
vt 0.441582 0.287320
vt 0.600000 0.500000
vt 0.891068 0.055836
vt 0.600000 1.000000
vt 0.440838 0.268657
vt 0.500000 0.500000
vt 0.750000 0.010000
vt 0.500000 1.000000
vt 0.434774 0.257122
vt 0.400000 0.500000
vt 0.608931 0.055836
vt 0.400000 1.000000
vt 0.425707 0.257122
vt 0.300000 0.500000
vt 0.521746 0.175836
vt 0.300000 1.000000
vt 0.417098 0.268657
vt 0.200000 0.500000
vt 0.521746 0.324164
vt 0.412238 0.287320
vt 0.200000 1.000000
vt 0.100000 0.500000
vt 0.608931 0.444164
vt 0.412982 0.305983
vt 0.100000 1.000000
vt 0.000000 0.000000
vt 0.000000 0.000000
vt 0.000000 0.000000
vt 0.423500 0.029675
vt 0.391326 0.114666
s 0
usemtl fish
f 3/6/1 4/7/1 6/9/1 5/8/1
f 5/8/2 6/9/2 8/11/2 7/10/2
f 7/10/3 8/11/3 10/14/3 9/13/3
f 9/12/4 10/15/4 12/18/4 11/17/4
f 6/9/5 4/7/5 13/19/5 14/21/5
f 8/11/6 6/9/6 14/21/6 15/23/6
f 10/14/7 8/11/7 15/23/7 2/3/7
f 12/18/8 10/15/8 2/4/8 1/1/8
f 14/22/9 13/20/9 17/26/9
f 15/24/10 14/22/10 17/26/10 18/27/10
f 2/5/11 15/24/11 18/27/11 1/2/11
f 3/6/12 5/8/12 19/28/12 16/25/12
f 9/12/13 11/17/13 22/33/13 21/30/13
f 5/8/14 7/10/14 20/29/14 19/28/14
f 7/10/15 9/13/15 21/31/15 20/29/15
f 21/31/16 22/34/16 26/38/16 25/37/16
f 19/28/17 23/35/17 16/25/17
f 19/28/18 20/29/18 24/36/18 23/35/18
f 20/29/19 21/31/19 25/37/19 24/36/19
f 54/90/20 55/91/20 28/40/20
f 22/32/21 11/16/21 33/45/21 32/44/21 31/43/21 29/41/21
f 44/70/27 45/72/27 47/76/27 46/74/27
f 46/74/28 47/76/28 49/80/28 48/78/28
f 48/78/29 49/80/29 51/85/29 50/82/29
f 50/82/31 51/85/31 53/89/31 52/86/31
f 52/86/32 53/89/32 35/51/32 34/47/32
f 34/48/33 36/54/33 38/59/33 40/63/33 42/67/33 44/71/33 46/75/33 48/79/33 50/83/33 52/87/33
f 56/92/34 55/91/34 54/90/34
f 56/92/35 30/42/35 27/39/35 55/91/35
f 28/40/36 55/91/36 27/39/36
f 54/90/37 28/40/37 57/93/37
f 31/43/38 32/44/38 59/95/38 58/94/38
f 32/44/39 33/45/39 59/95/39
f 31/43/40 58/94/40 29/41/40
f 3/6/41 61/99/41 62/100/41 4/7/41
f 61/99/42 63/101/42 64/102/42 62/100/42
f 63/101/43 65/104/43 66/105/43 64/102/43
f 65/103/44 11/17/44 12/18/44 66/106/44
f 62/100/45 67/107/45 13/19/45 4/7/45
f 64/102/46 68/109/46 67/107/46 62/100/46
f 66/105/47 60/96/47 68/109/47 64/102/47
f 12/18/48 1/1/48 60/97/48 66/106/48
f 67/108/49 17/26/49 13/20/49
f 68/110/50 18/27/50 17/26/50 67/108/50
f 60/98/51 1/2/51 18/27/51 68/110/51
f 3/6/52 16/25/52 69/111/52 61/99/52
f 65/103/53 71/113/53 22/33/53 11/17/53
f 61/99/54 69/111/54 70/112/54 63/101/54
f 63/101/55 70/112/55 71/114/55 65/104/55
f 71/114/56 25/37/56 26/38/56 22/34/56
f 69/111/57 16/25/57 23/35/57
f 69/111/58 23/35/58 24/36/58 70/112/58
f 70/112/59 24/36/59 25/37/59 71/114/59
f 92/159/60 28/40/60 93/160/60
f 82/139/66 84/143/66 85/145/66 83/141/66
f 84/143/67 86/147/67 87/149/67 85/145/67
f 86/147/68 88/151/68 89/154/68 87/149/68
f 88/151/70 90/155/70 91/158/70 89/154/70
f 90/155/71 72/116/71 73/120/71 91/158/71
f 72/117/72 90/156/72 88/152/72 86/148/72 84/144/72 82/140/72 80/136/72 78/132/72 76/128/72 74/123/72
f 94/161/73 92/159/73 93/160/73
f 94/161/74 93/160/74 27/39/74 30/42/74
f 28/40/75 27/39/75 93/160/75
f 92/159/76 57/93/76 28/40/76
f 31/43/77 95/162/77 96/163/77 32/44/77
f 32/44/78 96/163/78 33/45/78
f 31/43/79 29/41/79 95/162/79
usemtl fish_eye
f 34/46/22 35/49/22 37/55/22 36/52/22
f 36/53/23 37/56/23 39/60/23 38/58/23
f 38/58/24 39/60/24 41/64/24 40/62/24
f 40/62/25 41/64/25 43/68/25 42/66/25
f 42/66/26 43/68/26 45/72/26 44/70/26
f 37/57/30 35/50/30 53/88/30 51/84/30 49/81/30 47/77/30 45/73/30 43/69/30 41/65/30 39/61/30
f 72/115/61 74/121/61 75/124/61 73/118/61
f 74/122/62 76/127/62 77/129/62 75/125/62
f 76/127/63 78/131/63 79/133/63 77/129/63
f 78/131/64 80/135/64 81/137/64 79/133/64
f 80/135/65 82/139/65 83/141/65 81/137/65
f 75/126/69 77/130/69 79/134/69 81/138/69 83/142/69 85/146/69 87/150/69 89/153/69 91/157/69 73/119/69
