# Blender 3.3.0
# www.blender.org
mtllib flower.mtl
o Cylinder.001
v -0.223076 1.418484 -0.137548
v 0.122060 -0.025941 -0.137548
v -0.223076 1.418484 0.070512
v 0.122060 -0.025941 0.070512
v -0.422586 1.370812 -0.137548
v -0.077451 -0.073613 -0.137548
v -0.422586 1.370812 0.070512
v -0.077451 -0.073613 0.070512
v 0.187874 2.387784 -0.126686
v -0.261222 1.301416 -0.126686
v 0.187874 2.387784 0.038006
v -0.261222 1.301416 0.038006
v 0.037820 2.449816 -0.126686
v -0.411276 1.363447 -0.126686
v 0.037820 2.449816 0.038006
v -0.411276 1.363447 0.038006
v 0.547112 2.468290 -0.009658
v 0.547112 2.571797 -0.009658
v 0.547112 2.468290 0.131407
v 0.547112 2.571797 0.131407
v 0.372047 2.468290 0.359655
v 0.372047 2.571797 0.359655
v 0.088786 2.468290 0.446838
v 0.088786 2.571797 0.446838
v 0.714703 2.376487 -0.009658
v 0.714703 2.492083 -0.009658
v 0.714703 2.376487 0.183341
v 0.714703 2.492083 0.183341
v 0.475624 2.376487 0.495621
v 0.475624 2.492083 0.495621
v 0.088786 2.376487 0.614901
v 0.088786 2.492083 0.614901
v 0.088786 2.492083 -0.009658
v 0.088786 2.376487 -0.009658
v 0.088786 2.468290 -0.009658
v 0.088786 2.571797 -0.009658
v 0.945246 2.715553 0.359843
v 0.945246 2.831150 0.359843
v 0.706168 2.715553 0.672123
v 0.706168 2.831150 0.672123
v 0.600452 2.607008 0.900451
v 0.600452 2.722605 0.900451
v 0.199395 2.607008 1.019732
v 0.199395 2.722605 1.019732
v 1.145334 2.649294 0.080778
v 1.145334 2.764891 0.080778
v 1.145334 2.649294 0.273777
v 1.145334 2.764891 0.273777
v 0.572103 2.652835 0.317183
v -0.369539 2.468290 -0.009658
v -0.369539 2.571797 -0.009658
v -0.369539 2.468290 0.131407
v -0.369539 2.571797 0.131407
v -0.194474 2.468290 0.359655
v -0.194474 2.571797 0.359655
v -0.537130 2.376487 -0.009658
v -0.537130 2.492083 -0.009658
v -0.537130 2.376487 0.183341
v -0.537130 2.492083 0.183341
v -0.298051 2.376487 0.495621
v -0.298051 2.492083 0.495621
v -0.767673 2.715553 0.359843
v -0.767673 2.831150 0.359843
v -0.528595 2.715553 0.672123
v -0.528595 2.831150 0.672123
v -0.422879 2.607008 0.900451
v -0.422879 2.722605 0.900451
v -0.021822 2.607008 1.019732
v -0.021822 2.722605 1.019732
v -0.967761 2.649294 0.080778
v -0.967761 2.764891 0.080778
v -0.967761 2.649294 0.273777
v -0.967761 2.764891 0.273777
v -0.394530 2.652835 0.317183
v 0.547112 2.468290 -0.150723
v 0.547112 2.571797 -0.150723
v 0.372047 2.468290 -0.378972
v 0.372047 2.571797 -0.378972
v 0.088786 2.468290 -0.466155
v 0.088786 2.571797 -0.466155
v 0.714703 2.376487 -0.202658
v 0.714703 2.492083 -0.202658
v 0.475624 2.376487 -0.514937
v 0.475624 2.492083 -0.514937
v 0.088786 2.376487 -0.634218
v 0.088786 2.492083 -0.634218
v 0.945246 2.715553 -0.379160
v 0.945246 2.831150 -0.379160
v 0.706168 2.715553 -0.691440
v 0.706168 2.831150 -0.691440
v 0.600452 2.607008 -0.919768
v 0.600452 2.722605 -0.919768
v 0.199395 2.607008 -1.039049
v 0.199395 2.722605 -1.039049
v 1.145334 2.649294 -0.100095
v 1.145334 2.764891 -0.100095
v 1.145334 2.649294 -0.293094
v 1.145334 2.764891 -0.293094
v 0.572103 2.652835 -0.336500
v -0.369539 2.468290 -0.150723
v -0.369539 2.571797 -0.150723
v -0.194474 2.468290 -0.378972
v -0.194474 2.571797 -0.378972
v -0.537130 2.376487 -0.202658
v -0.537130 2.492083 -0.202658
v -0.298051 2.376487 -0.514937
v -0.298051 2.492083 -0.514937
v -0.767673 2.715553 -0.379160
v -0.767673 2.831150 -0.379160
v -0.528595 2.715553 -0.691440
v -0.528595 2.831150 -0.691440
v -0.422879 2.607008 -0.919768
v -0.422879 2.722605 -0.919768
v -0.021822 2.607008 -1.039049
v -0.021822 2.722605 -1.039049
v -0.967761 2.649294 -0.100095
v -0.967761 2.764891 -0.100095
v -0.967761 2.649294 -0.293094
v -0.967761 2.764891 -0.293094
v -0.394530 2.652835 -0.336500
vn -0.2324 0.9726 -0.0000
vn -0.0000 -0.0000 1.0000
vn -0.9726 -0.2324 -0.0000
vn 0.2324 -0.9726 -0.0000
vn 0.9726 0.2324 -0.0000
vn -0.0000 -0.0000 -1.0000
vn 0.3820 0.9241 -0.0000
vn -0.9241 0.3820 -0.0000
vn -0.3820 -0.9241 -0.0000
vn 0.9241 -0.3820 -0.0000
vn 1.0000 -0.0000 -0.0000
vn 0.7935 -0.0000 0.6086
vn 0.2942 -0.0000 0.9558
vn -0.2055 -0.0000 0.9787
vn -0.6031 0.6504 -0.4617
vn 0.1390 -0.8774 0.4592
vn -1.0000 -0.0000 -0.0000
vn -0.0000 1.0000 -0.0000
vn -0.0000 -1.0000 -0.0000
vn 0.7940 -0.0000 0.6079
vn 0.6079 -0.0000 -0.7940
vn -0.6079 -0.0000 0.7940
vn 0.6031 -0.6504 0.4617
vn 0.2851 -0.0000 0.9585
vn -0.1390 0.8774 -0.4592
vn 0.9556 -0.0000 -0.2947
vn -0.9646 -0.0000 0.2636
vn 0.5352 -0.8448 -0.0000
vn -0.5352 0.8448 -0.0000
vn 0.2055 -0.0000 -0.9787
vn -0.4131 0.8538 -0.3169
vn -0.7935 -0.0000 0.6086
vn -0.2942 -0.0000 0.9558
vn 0.2055 -0.0000 0.9787
vn 0.6031 0.6504 -0.4617
vn -0.1390 -0.8774 0.4592
vn -0.7940 -0.0000 0.6079
vn -0.6079 -0.0000 -0.7940
vn 0.6079 -0.0000 0.7940
vn -0.6031 -0.6504 0.4617
vn -0.2851 -0.0000 0.9585
vn 0.1390 0.8774 -0.4592
vn -0.9556 -0.0000 -0.2947
vn 0.9646 -0.0000 0.2636
vn -0.5352 -0.8448 -0.0000
vn 0.5352 0.8448 -0.0000
vn -0.2055 -0.0000 -0.9787
vn 0.4131 0.8538 -0.3169
vn 0.7935 -0.0000 -0.6086
vn 0.2942 -0.0000 -0.9558
vn -0.6031 0.6504 0.4617
vn 0.1390 -0.8774 -0.4592
vn 0.7940 -0.0000 -0.6079
vn 0.6031 -0.6504 -0.4617
vn 0.2851 -0.0000 -0.9585
vn -0.1390 0.8774 0.4592
vn 0.9556 -0.0000 0.2947
vn -0.9646 -0.0000 -0.2636
vn -0.4131 0.8538 0.3169
vn -0.7935 -0.0000 -0.6086
vn -0.2942 -0.0000 -0.9558
vn 0.6031 0.6504 0.4617
vn -0.1390 -0.8774 -0.4592
vn -0.7940 -0.0000 -0.6079
vn -0.6031 -0.6504 -0.4617
vn -0.2851 -0.0000 -0.9585
vn 0.1390 0.8774 0.4592
vn -0.9556 -0.0000 0.2947
vn 0.9646 -0.0000 -0.2636
vn 0.4131 0.8538 0.3169
vt 0.079820 0.719565
vt 0.055229 0.719565
vt 0.079820 0.744155
vt 0.055229 0.744155
vt 0.104410 0.719565
vt 0.079820 0.694974
vt 0.030639 0.719565
vt 0.055229 0.694974
vt 0.104410 0.744155
vt 0.079820 0.768745
vt 0.079820 0.670384
vt 0.055229 0.768745
vt 0.055229 0.670384
vt 0.030639 0.744155
vt 0.310177 0.745070
vt 0.288397 0.745070
vt 0.310177 0.766850
vt 0.288397 0.766850
vt 0.331957 0.745070
vt 0.310177 0.723289
vt 0.266617 0.745070
vt 0.288397 0.723289
vt 0.331957 0.766850
vt 0.310177 0.788630
vt 0.310177 0.701509
vt 0.288397 0.788630
vt 0.288397 0.701509
vt 0.266617 0.766850
vt 0.397100 0.828919
vt 0.803895 0.346126
vt 0.791211 0.962442
vt 0.832760 0.346126
vt 0.404926 0.857728
vt 0.797611 0.938883
vt 0.361886 0.838486
vt 0.371451 0.864336
vt 0.858904 0.512567
vt 0.299155 0.876778
vt 0.319435 0.899126
vt 0.803895 0.466718
vt 0.250460 0.942605
vt 0.131394 0.897733
vt 0.514491 0.889472
vt 0.131394 0.916434
vt 0.278581 0.962022
vt 0.537487 0.873593
vt 0.803895 0.232331
vt 0.510550 0.151066
vt 0.145988 0.293136
vt 0.836131 0.232331
vt 0.507109 0.199867
vt 0.180299 0.288402
vt 0.450666 0.193223
vt 0.460039 0.209174
vt 0.393324 0.239082
vt 0.407785 0.252384
vt 0.158628 0.833891
vt 0.307254 0.336002
vt 0.523596 0.619717
vt 0.158628 0.854777
vt 0.364577 0.331678
vt 0.519921 0.593170
vt 0.836131 0.077761
vt 0.057421 0.854777
vt 0.510550 0.339961
vt 0.057421 0.897338
vt 0.610833 0.482208
vt 0.158628 0.876057
vt 0.180299 0.051450
vt 0.919797 0.803546
vt 0.803895 0.077761
vt 0.057421 0.833891
vt 0.274231 0.074895
vt 0.057421 0.876453
vt 0.525926 0.676707
vt 0.158628 0.855172
vt 0.070143 0.307009
vt 0.781658 0.648603
vt 0.803895 0.232942
vt 0.057421 0.897733
vt 0.803895 0.459920
vt 0.205763 0.897733
vt 0.832760 0.232942
vt 0.057421 0.916434
vt 0.404926 0.976468
vt 0.832760 0.459920
vt 0.640804 0.861781
vt 0.205763 0.916434
vt 0.797611 0.841785
vt 0.954417 0.966077
vt 0.432239 0.228940
vt 0.433833 0.227904
vt 0.433260 0.230100
vt 0.433688 0.229152
vt 0.380450 0.273874
vt 0.376833 0.280664
vt 0.374030 0.272575
vt 0.374471 0.276072
vt 0.469645 0.194386
vt 0.472460 0.194428
vt 0.472407 0.195382
vt 0.472528 0.194932
vt 0.858904 0.460530
vt 0.634404 0.982437
vt 0.803895 0.346736
vt 0.948017 0.845420
vt 0.832760 0.346736
vt 0.640804 0.958879
vt 0.954417 0.868979
vt 0.605608 0.974614
vt 0.613430 0.953476
vt 0.445510 0.900530
vt 0.554310 0.943301
vt 0.570894 0.925026
vt 0.445510 0.828919
vt 0.157565 0.876453
vt 0.583780 0.666569
vt 0.919797 0.693128
vt 0.157565 0.897338
vt 0.610833 0.663371
vt 0.917786 0.721655
vt 0.580133 0.656341
vt 0.588742 0.652685
vt 0.553274 0.631516
vt 0.556378 0.619355
vt 0.575363 0.642809
vt 0.571822 0.644590
vt 0.565263 0.633188
vt 0.563529 0.636416
vt 0.542401 0.615740
vt 0.540107 0.617390
vt 0.530078 0.610442
vt 0.528968 0.611813
vt 0.580827 0.757678
vt 0.583849 0.785405
vt 0.588111 0.753784
vt 0.581731 0.768381
vt 0.405537 0.867213
vt 0.762415 0.954619
vt 0.770237 0.933480
vt 0.486093 0.900530
vt 0.711116 0.923306
vt 0.727700 0.905031
vt 0.486093 0.828919
vt 0.671297 0.869476
vt 0.131790 0.897733
vt 0.828103 0.938386
vt 0.131790 0.916434
vt 0.694293 0.853598
vt 0.851099 0.954264
vt 0.141391 0.279464
vt 0.151330 0.275043
vt 0.105536 0.247281
vt 0.109270 0.231354
vt 0.057421 0.855172
vt 0.066444 0.232076
vt 0.800961 0.801231
vt 0.057421 0.876057
vt 0.061454 0.197195
vt 0.834469 0.798704
vt 0.134123 0.261761
vt 0.129430 0.264129
vt 0.120913 0.249353
vt 0.118648 0.253546
vt 0.091024 0.226638
vt 0.088011 0.228816
vt 0.074836 0.219791
vt 0.073392 0.221584
vt 0.149211 0.409544
vt 0.151311 0.428475
vt 0.157741 0.424870
vt 0.143459 0.462813
vt 0.446120 0.867213
vt 0.919221 0.853243
vt 0.927043 0.874382
vt 0.194663 0.867605
vt 0.867923 0.884556
vt 0.884506 0.902832
vt 0.159024 0.837901
vt 0.884792 0.717771
vt 0.890271 0.727095
vt 0.851273 0.744578
vt 0.859726 0.752353
vt 0.874021 0.738649
vt 0.874953 0.738044
vt 0.874617 0.739327
vt 0.874868 0.738773
vt 0.843748 0.764915
vt 0.841634 0.768884
vt 0.839995 0.764155
vt 0.840253 0.766200
vt 0.895886 0.718450
vt 0.897532 0.718475
vt 0.897501 0.719033
vt 0.897572 0.718770
vt 0.194663 0.833891
s 0
usemtl flower
f 1/1/1 5/5/1 7/9/1 3/3/1
f 4/4/2 3/3/2 7/10/2 8/12/2
f 8/13/3 7/11/3 5/6/3 6/8/3
f 6/7/4 2/2/4 4/4/4 8/14/4
f 2/2/5 1/1/5 3/3/5 4/4/5
f 6/8/6 5/6/6 1/1/6 2/2/6
f 9/15/7 13/19/7 15/23/7 11/17/7
f 12/18/2 11/17/2 15/24/2 16/26/2
f 16/27/8 15/25/8 13/20/8 14/22/8
f 14/21/9 10/16/9 12/18/9 16/28/9
f 10/16/10 9/15/10 11/17/10 12/18/10
f 14/22/6 13/20/6 9/15/6 10/16/6
f 17/29/11 18/33/11 20/36/11 19/35/11
f 19/35/12 20/36/12 22/39/12 21/38/12
f 21/38/13 22/39/13 24/45/13 23/41/13
f 28/54/14 27/53/14 47/101/14 48/102/14
f 28/54/15 30/56/15 40/94/15 38/92/15
f 31/58/16 29/55/16 41/95/16 43/97/16
f 26/50/6 25/47/6 34/71/6 33/63/6
f 31/57/17 32/60/17 33/64/17 34/72/17
f 18/32/6 17/30/6 35/79/6 36/83/6
f 23/42/17 24/44/17 36/84/17 35/80/17
f 18/33/18 36/85/18 24/45/18 22/39/18 20/36/18
f 25/48/19 27/53/19 29/55/19 31/58/19 34/73/19
f 26/51/18 33/65/18 32/61/18 30/56/18 28/54/18
f 37/91/20 38/92/20 40/94/20 39/93/20
f 27/53/21 28/54/21 38/92/21 37/91/21
f 30/56/22 29/55/22 39/93/22 40/94/22
f 29/55/23 27/53/23 37/91/23 39/93/23
f 41/95/24 42/96/24 44/98/24 43/97/24
f 30/56/25 32/61/25 44/98/25 42/96/25
f 29/55/26 30/56/26 42/96/26 41/95/26
f 32/61/27 31/58/27 43/97/27 44/98/27
f 45/99/11 46/100/11 48/102/11 47/101/11
f 27/53/28 25/48/28 45/99/28 47/101/28
f 26/51/29 28/54/29 48/102/29 46/100/29
f 25/48/30 26/51/30 46/100/30 45/99/30
f 20/37/31 22/40/31 49/103/31
f 50/104/17 52/110/17 53/111/17 51/108/17
f 52/110/32 54/113/32 55/114/32 53/111/32
f 54/113/33 23/43/33 24/46/33 55/114/33
f 59/123/34 73/137/34 72/136/34 58/122/34
f 59/123/35 63/127/35 65/129/35 61/125/35
f 31/59/36 68/132/36 66/130/36 60/124/36
f 57/119/6 33/66/6 34/74/6 56/116/6
f 51/107/6 36/86/6 35/81/6 50/105/6
f 51/108/18 53/111/18 55/114/18 24/46/18 36/87/18
f 56/117/19 34/75/19 31/59/19 60/124/19 58/122/19
f 57/120/18 59/123/18 61/125/18 32/62/18 33/67/18
f 62/126/37 64/128/37 65/129/37 63/127/37
f 58/122/38 62/126/38 63/127/38 59/123/38
f 61/125/39 65/129/39 64/128/39 60/124/39
f 60/124/40 64/128/40 62/126/40 58/122/40
f 66/130/41 68/132/41 69/133/41 67/131/41
f 61/125/42 67/131/42 69/133/42 32/62/42
f 60/124/43 66/130/43 67/131/43 61/125/43
f 32/62/44 69/133/44 68/132/44 31/59/44
f 70/134/17 72/136/17 73/137/17 71/135/17
f 58/122/45 72/136/45 70/134/45 56/117/45
f 57/120/46 71/135/46 73/137/46 59/123/46
f 56/117/47 70/134/47 71/135/47 57/120/47
f 53/112/48 74/138/48 55/115/48
f 17/31/11 75/139/11 76/140/11 18/34/11
f 75/139/49 77/142/49 78/143/49 76/140/49
f 77/142/50 79/145/50 80/149/50 78/143/50
f 82/152/47 98/172/47 97/171/47 81/151/47
f 82/152/51 88/162/51 90/164/51 84/154/51
f 85/156/52 93/167/52 91/165/52 83/153/52
f 85/155/17 34/76/17 33/68/17 86/158/17
f 79/146/17 35/82/17 36/88/17 80/148/17
f 18/34/18 76/140/18 78/143/18 80/149/18 36/89/18
f 25/49/19 34/77/19 85/156/19 83/153/19 81/151/19
f 26/52/18 82/152/18 84/154/18 86/159/18 33/69/18
f 87/161/53 89/163/53 90/164/53 88/162/53
f 81/151/39 87/161/39 88/162/39 82/152/39
f 84/154/38 90/164/38 89/163/38 83/153/38
f 83/153/54 89/163/54 87/161/54 81/151/54
f 91/165/55 93/167/55 94/168/55 92/166/55
f 84/154/56 92/166/56 94/168/56 86/159/56
f 83/153/57 91/165/57 92/166/57 84/154/57
f 86/159/58 94/168/58 93/167/58 85/156/58
f 95/169/11 97/171/11 98/172/11 96/170/11
f 81/151/28 97/171/28 95/169/28 25/49/28
f 26/52/29 96/170/29 98/172/29 82/152/29
f 25/49/34 95/169/34 96/170/34 26/52/34
f 76/141/59 99/173/59 78/144/59
f 50/106/17 51/109/17 101/175/17 100/174/17
f 100/174/60 101/175/60 103/178/60 102/177/60
f 102/177/61 103/178/61 80/150/61 79/147/61
f 105/181/30 104/180/30 118/194/30 119/195/30
f 105/181/62 107/183/62 111/187/62 109/185/62
f 85/157/63 106/182/63 112/188/63 114/190/63
f 51/109/18 36/90/18 80/150/18 103/178/18 101/175/18
f 56/118/19 104/180/19 106/182/19 85/157/19 34/78/19
f 57/121/18 33/70/18 86/160/18 107/183/18 105/181/18
f 108/184/64 109/185/64 111/187/64 110/186/64
f 104/180/22 105/181/22 109/185/22 108/184/22
f 107/183/21 106/182/21 110/186/21 111/187/21
f 106/182/65 104/180/65 108/184/65 110/186/65
f 112/188/66 113/189/66 115/191/66 114/190/66
f 107/183/67 86/160/67 115/191/67 113/189/67
f 106/182/68 107/183/68 113/189/68 112/188/68
f 86/160/69 85/157/69 114/190/69 115/191/69
f 116/192/17 117/193/17 119/195/17 118/194/17
f 104/180/45 56/118/45 116/192/45 118/194/45
f 57/121/46 105/181/46 119/195/46 117/193/46
f 56/118/14 57/121/14 117/193/14 116/192/14
f 101/176/70 103/179/70 120/196/70
