# Blender 3.3.0
# www.blender.org
mtllib house.mtl
o Cube
v 13.557303 29.737219 -29.026218
v 13.557303 -0.262781 -29.026218
v -32.195522 29.737219 -29.026218
v -32.195522 -0.262781 -29.026218
v -9.319110 42.201275 -26.075325
v -9.319110 40.490009 -2.079021
v -28.667145 -0.157043 0.973781
v -28.667145 26.208841 0.973781
v 10.028926 26.208841 0.973781
v 10.028926 -0.157043 0.973781
v 16.709137 32.586987 -30.949142
v -9.319110 46.701424 -27.619997
v -9.319110 44.990158 -3.623693
v 16.709137 32.586987 -0.949142
v 19.572746 26.443283 -30.296886
v 19.572746 26.443283 -0.296888
v 21.475704 28.807030 -31.075676
v 21.475704 28.807030 -1.075677
v -9.319110 39.792015 5.355309
v 13.560819 29.039223 8.408111
v -9.319110 44.292164 3.810637
v 16.712650 31.888990 6.485187
v -9.319110 40.490009 -2.079021
v 13.557303 29.737219 0.973781
v -9.319110 44.990158 -3.623693
v 16.709137 32.586987 -0.949142
v -32.195522 -0.262781 0.973781
v -32.195522 29.737219 0.973781
v 13.557303 29.737219 0.973781
v 13.557303 -0.262781 0.973781
v -28.667145 -0.157043 11.639503
v 10.028926 26.208841 11.639503
v 10.028926 -0.157043 11.639503
v 14.723990 24.280945 0.973781
v 14.723990 24.280945 11.639503
v 11.113544 28.445475 0.973781
v 11.113544 28.445475 11.639503
v 15.808608 26.517578 0.973781
v 15.808608 26.517578 11.639503
v -9.319110 42.201275 -26.075325
v -9.319110 46.701424 -27.619997
v -9.319110 26.208843 11.639503
v -9.319110 29.232107 -0.794174
v -9.319110 28.872862 11.648074
v -32.195522 29.737219 -29.026218
v -32.195522 -0.262781 -29.026218
v 13.557303 29.737219 -29.026218
v 10.028926 -0.157043 0.973781
v 10.028926 26.208841 0.973781
v -28.667145 26.208841 0.973781
v -28.667145 -0.157043 0.973781
v -35.347355 32.586987 -30.949142
v -35.347355 32.586987 -0.949142
v -38.210968 26.443283 -30.296886
v -38.210968 26.443283 -0.296888
v -40.113922 28.807030 -31.075676
v -40.113922 28.807030 -1.075677
v -32.199039 29.039223 8.408111
v -35.350868 31.888990 6.485187
v -32.195522 29.737219 0.973781
v -35.347355 32.586987 -0.949142
v 13.557303 -0.262781 0.973781
v 13.557303 29.737219 0.973781
v -32.195522 29.737219 0.973781
v -32.195522 -0.262781 0.973781
v 10.028926 -0.157043 11.639503
v 10.028926 26.208841 11.639503
v -28.667145 26.208841 11.639503
v -28.667145 -0.157043 11.639503
v -33.362209 24.280945 0.973781
v -33.362209 24.280945 11.639503
v -29.751762 28.445475 0.973781
v -29.751762 28.445475 11.639503
v -34.446827 26.517578 0.973781
v -34.446827 26.517578 11.639503
v 12.624719 23.551079 13.371867
v 10.298051 27.516663 13.383544
v 13.709336 25.787712 13.371867
v -9.319110 27.881807 13.827287
v 9.953713 24.745514 13.493361
v -9.319110 24.992538 14.319961
v -9.319110 25.947350 11.639503
v 4.362120 0.000001 12.557143
v 4.362120 25.408424 12.557143
v 4.511598 -0.157043 11.639512
v 4.511598 26.134272 11.639512
v 9.879447 0.000001 12.557143
v 9.879447 25.408424 12.557143
v 10.028926 -0.157043 11.639512
v 10.028926 26.134272 11.639512
v 14.735091 -0.262781 0.973781
v 14.735091 29.737219 0.973781
v 14.735091 -0.262781 -3.827348
v 14.735091 29.737219 -3.827348
v 13.557302 -0.262781 -3.827348
v 13.557302 29.737219 -3.827348
v -9.319110 -0.157043 11.639503
v -18.993128 -0.157043 11.639503
v 0.354908 -0.157043 11.639503
v -9.319110 -0.157043 12.653491
v 0.354908 -0.157043 12.653491
v -9.319110 21.718529 12.653491
v 0.354908 21.718529 12.653491
v -9.319110 21.718529 11.639504
v 0.354908 21.718529 11.639504
v -32.195522 29.737219 -29.026218
v 13.557303 29.737219 -29.026218
v 10.028926 -0.157043 0.973781
v 10.028926 26.208841 0.973781
v -28.667145 26.208841 0.973781
v -28.667145 -0.157043 0.973781
v -35.347355 32.586987 -30.949142
v -35.347355 32.586987 -0.949142
v -38.210968 26.443283 -30.296886
v -38.210968 26.443283 -0.296888
v -40.113922 28.807030 -31.075676
v -40.113922 28.807030 -1.075677
v -32.199039 29.039223 8.408111
v -35.350868 31.888990 6.485187
v -32.195522 29.737219 0.973781
v -35.347355 32.586987 -0.949142
v 13.557303 -0.262781 0.973781
v -32.195522 29.737219 0.973781
v -32.195522 -0.262781 0.973781
v 10.028926 -0.157043 11.639503
v 10.028926 26.208841 11.639503
v -28.667145 26.208841 11.639503
v -28.667145 -0.157043 11.639503
v -33.362209 24.280945 0.973781
v -33.362209 24.280945 11.639503
v -29.751762 28.445475 0.973781
v -29.751762 28.445475 11.639503
v -34.446827 26.517578 0.973781
v -34.446827 26.517578 11.639503
v 13.557303 29.737219 -29.026218
v -32.195522 29.737219 -29.026218
v -28.667145 -0.157043 0.973781
v 10.028926 26.208841 0.973781
v 10.028926 -0.157043 0.973781
v 16.709137 32.586987 -30.949142
v 16.709137 32.586987 -0.949142
v 19.572746 26.443283 -30.296886
v 19.572746 26.443283 -0.296888
v 21.475704 28.807030 -31.075676
v 21.475704 28.807030 -1.075677
v 13.560819 29.039223 8.408111
v 16.712650 31.888990 6.485187
v 13.557303 29.737219 0.973781
v 16.709137 32.586987 -0.949142
v -32.195522 -0.262781 0.973781
v -32.195522 29.737219 0.973781
v 13.557303 29.737219 0.973781
v 13.557303 -0.262781 0.973781
v -28.667145 26.208841 11.639503
v 10.028926 26.208841 11.639503
v 14.723990 24.280945 0.973781
v 14.723990 24.280945 11.639503
v 11.113544 28.445475 0.973781
v 11.113544 28.445475 11.639503
v 15.808608 26.517578 0.973781
v 15.808608 26.517578 11.639503
v -31.262939 23.551079 13.371867
v -28.936272 27.516663 13.383544
v -32.347557 25.787712 13.371867
v -28.591934 24.745514 13.493361
v -23.000340 0.000001 12.557143
v -23.000340 25.408424 12.557143
v -23.149818 -0.157043 11.639512
v -23.149818 26.134272 11.639512
v -28.517666 0.000001 12.557143
v -28.517666 25.408424 12.557143
v -28.667145 -0.157043 11.639512
v -28.667145 26.134272 11.639512
v -33.373310 -0.262781 0.973781
v -33.373310 29.737219 0.973781
v -33.373310 -0.262781 -3.827348
v -33.373310 29.737219 -3.827348
v -32.195522 -0.262781 -3.827348
v -32.195522 29.737219 -3.827348
v 0.354908 -0.157043 11.639503
v -18.993128 -0.157043 11.639503
v -18.993128 -0.157043 12.653491
v -18.993128 21.718529 12.653491
v -18.993128 21.718529 11.639504
v 1.179662 36.427837 -14.837570
v 1.179662 57.950508 -14.837570
v 1.179662 36.427837 -23.466097
v 1.179662 57.950508 -23.466097
v 8.782210 36.427837 -14.837570
v 8.782210 57.950508 -14.837570
v 8.782210 36.427837 -23.466097
v 8.782210 57.950508 -23.466097
vn -0.0000 1.0000 -0.0000
vn -0.0000 -1.0000 -0.0000
vn 1.0000 -0.0000 -0.0000
vn -0.0000 -0.0000 -1.0000
vn -0.2835 -0.3070 -0.9085
vn -0.0000 0.2731 0.9620
vn -0.0000 0.2304 -0.9731
vn 0.4540 0.8906 0.0282
vn -0.2688 -0.2247 -0.9366
vn 0.7789 -0.6271 -0.0000
vn -0.4803 -0.8771 -0.0000
vn 0.6214 0.7835 -0.0000
vn 0.0808 0.3968 0.9144
vn 0.4215 0.9029 0.0847
vn -0.4145 -0.9061 -0.0850
vn -0.7065 0.3773 -0.5988
vn -0.7080 0.3723 -0.6000
vn -0.6209 -0.7805 -0.0730
vn -0.4918 -0.8669 -0.0812
vn -0.0000 -0.0000 1.0000
vn 0.3798 0.9250 -0.0000
vn 0.8998 -0.4363 -0.0000
vn -0.3798 -0.9250 -0.0000
vn 0.0002 -0.0018 1.0000
vn 0.0290 0.9995 0.0155
vn -1.0000 -0.0000 -0.0000
vn 0.2835 -0.3070 -0.9085
vn -0.4540 0.8906 0.0282
vn 0.2688 -0.2247 -0.9366
vn -0.7789 -0.6271 -0.0000
vn 0.4803 -0.8771 -0.0000
vn -0.6214 0.7835 -0.0000
vn -0.0808 0.3968 0.9144
vn -0.4215 0.9029 0.0847
vn 0.4145 -0.9061 -0.0850
vn 0.7065 0.3773 -0.5988
vn 0.7080 0.3723 -0.6000
vn 0.6209 -0.7805 -0.0730
vn 0.4918 -0.8669 -0.0812
vn -0.3798 0.9250 -0.0000
vn -0.8998 -0.4363 -0.0000
vn 0.3798 -0.9250 -0.0000
vn -0.0002 -0.0018 1.0000
vn -0.0290 0.9995 0.0155
vn 0.0227 0.8961 0.4432
vn 0.6666 -0.3233 0.6716
vn 0.3742 0.7345 0.5661
vn 0.0285 0.0138 0.9995
vn 0.0341 0.1037 0.9940
vn -0.0097 -0.8823 -0.4707
vn -0.3522 -0.7276 -0.5886
vn -0.2894 -0.7048 -0.6477
vn 0.2894 0.7048 0.6477
vn -0.9870 -0.0000 -0.1608
vn 0.9870 -0.0000 0.1608
vn -0.0000 -0.9857 0.1687
vn -0.0000 0.7843 0.6204
vn -0.0227 0.8961 0.4432
vn -0.6666 -0.3233 0.6716
vn -0.3742 0.7345 0.5661
vn -0.0285 0.0138 0.9995
vn -0.0341 0.1037 0.9940
vn 0.0097 -0.8823 -0.4707
vn 0.3522 -0.7276 -0.5886
vn 0.2894 -0.7048 -0.6477
vn -0.2894 0.7048 0.6477
vn 0.9870 -0.0000 -0.1608
vn -0.9870 -0.0000 0.1608
vt 0.560293 0.475618
vt 0.605684 0.092979
vt 0.589224 0.882797
vt 0.634801 0.174293
vt 0.558868 0.264710
vt 0.629067 0.828731
vt 0.634041 0.208031
vt 0.624281 0.866918
vt 0.065105 0.934482
vt 0.259395 0.911282
vt 0.736220 0.855712
vt 0.616104 0.927332
vt 0.057920 0.881233
vt 0.252402 0.859457
vt 0.726422 0.928096
vt 0.654932 0.198096
vt 0.690054 0.238839
vt 0.690633 0.163595
vt 0.444276 0.628139
vt 0.659378 0.176218
vt 0.596914 0.886695
vt 0.628938 0.871347
vt 0.069213 0.930577
vt 0.263393 0.907481
vt 0.741799 0.861017
vt 0.629067 0.907131
vt 0.069328 0.899046
vt 0.263505 0.876793
vt 0.741954 0.903892
vt 0.600061 0.901261
vt 0.593935 0.890692
vt 0.595035 0.902762
vt 0.595119 0.890775
vt 0.596547 0.901574
vt 0.619973 0.919253
vt 0.061323 0.888356
vt 0.255714 0.866390
vt 0.731058 0.918415
vt 0.598647 0.907957
vt 0.624690 0.915534
vt 0.065476 0.891638
vt 0.259756 0.869583
vt 0.736709 0.913960
vt 0.599660 0.905387
vt 0.652914 0.205800
vt 0.617801 0.957832
vt 0.697160 0.263776
vt 0.698585 0.474684
vt 0.590999 0.909928
vt 0.698585 0.152276
vt 0.659954 0.172511
vt 0.660852 0.196443
vt 0.413597 0.605897
vt 0.664451 0.179784
vt 0.428586 0.629923
vt 0.405045 0.622753
vt 0.516374 0.724941
vt 0.442715 0.640584
vt 0.405098 0.602227
vt 0.404631 0.650556
vt 0.498685 0.712327
vt 0.427426 0.634217
vt 0.396546 0.619084
vt 0.403129 0.631029
vt 0.506840 0.728362
vt 0.468163 0.558837
vt 0.167628 0.869869
vt 0.205597 0.716945
vt 0.167583 0.936181
vt 0.468163 0.711938
vt 0.167944 0.902885
vt 0.205597 0.563845
vt 0.167904 0.903195
vt 0.461684 0.551324
vt 0.423708 0.723539
vt 0.167944 0.875363
vt 0.199117 0.724459
vt 0.161141 0.552244
vt 0.167904 0.930690
vt 0.496790 0.639801
vt 0.311742 0.351545
vt 0.034175 0.920473
vt 0.383013 0.335422
vt 0.069328 0.968174
vt 0.466779 0.337301
vt 0.480776 0.414377
vt 0.388001 0.415183
vt 0.117910 0.890686
vt 0.403976 0.359336
vt 0.040965 0.917030
vt 0.043759 0.904196
vt 0.038345 0.913505
vt 0.039331 0.902867
vt 0.039389 0.913433
vt 0.040663 0.903916
vt 0.042520 0.898293
vt 0.043410 0.900559
vt 0.478536 0.332635
vt 0.861511 0.650830
vt 0.851407 0.750361
vt 0.374697 0.424090
vt 0.035783 0.896547
vt 0.396645 0.361552
vt 0.447303 0.363788
vt 0.455925 0.392437
vt 0.523836 0.709336
vt 0.415408 0.397119
vt 0.415271 0.397912
vt 0.128666 0.876125
vt 0.414175 0.368245
vt 0.127077 0.886358
vt 0.127072 0.885481
vt 0.122736 0.898927
vt 0.131489 0.881731
vt 0.127412 0.885430
vt 0.127166 0.885441
vt 0.514905 0.716787
vt 0.505375 0.708800
vt 0.509669 0.719054
vt 0.505551 0.639836
vt 0.514937 0.708697
vt 0.515081 0.639875
vt 0.524401 0.639913
vt 0.502266 0.770628
vt 0.499942 0.847590
vt 0.498843 0.766195
vt 0.496783 0.853271
vt 0.520910 0.768514
vt 0.521274 0.849209
vt 0.524401 0.764710
vt 0.524401 0.854143
vt 0.864964 0.654717
vt 0.855314 0.750758
vt 0.878070 0.655373
vt 0.876889 0.752238
vt 0.882031 0.650178
vt 0.882031 0.752282
vt 0.662608 0.188004
vt 0.893386 0.474061
vt 0.417096 0.850369
vt 0.661506 0.192893
vt 0.663482 0.183486
vt 0.448251 0.863777
vt 0.416605 0.853878
vt 0.445131 0.866049
vt 0.405336 0.934399
vt 0.444220 0.928301
vt 0.404488 0.940462
vt 0.448251 0.931748
vt 0.229292 0.897647
vt 0.263505 0.944072
vt 0.881993 0.459081
vt 0.934125 0.398604
vt 0.934985 0.510292
vt 0.181709 0.647644
vt 0.888592 0.491555
vt 0.235900 0.894296
vt 0.238620 0.881806
vt 0.233350 0.890866
vt 0.234311 0.880512
vt 0.234366 0.890796
vt 0.235606 0.881533
vt 0.237414 0.876060
vt 0.238280 0.878266
vt 0.878997 0.447645
vt 0.230857 0.874361
vt 0.889447 0.497057
vt 0.890781 0.461535
vt 0.906423 0.451682
vt 0.911755 0.485023
vt 0.151030 0.669886
vt 0.896122 0.486261
vt 0.166019 0.645860
vt 0.142478 0.653029
vt 0.517067 0.554822
vt 0.180149 0.635198
vt 0.142531 0.673556
vt 0.142065 0.625227
vt 0.499275 0.567292
vt 0.164860 0.641566
vt 0.133979 0.656699
vt 0.140562 0.644754
vt 0.507561 0.551324
vt 0.694216 0.874736
vt 0.741954 0.809958
vt 0.183065 0.116340
vt 0.107738 0.042686
vt 0.117910 0.915348
vt 0.120434 0.095786
vt 0.703430 0.879407
vt 0.707201 0.896859
vt 0.699861 0.884195
vt 0.701179 0.898658
vt 0.701280 0.884296
vt 0.702991 0.897234
vt 0.705507 0.904881
vt 0.706720 0.901802
vt 0.193525 0.120236
vt 0.240144 0.621948
vt 0.230040 0.522417
vt 0.696343 0.907243
vt 0.095452 0.033794
vt 0.113792 0.093920
vt 0.524401 0.570488
vt 0.128617 0.929948
vt 0.127054 0.919682
vt 0.126917 0.920505
vt 0.122741 0.907149
vt 0.131461 0.924308
vt 0.127447 0.920660
vt 0.126907 0.920536
vt 0.515532 0.562964
vt 0.505937 0.570873
vt 0.510314 0.560655
vt 0.515498 0.571055
vt 0.799877 0.818475
vt 0.797554 0.741513
vt 0.796454 0.822908
vt 0.794395 0.735832
vt 0.818522 0.820589
vt 0.818886 0.739894
vt 0.822013 0.824393
vt 0.822013 0.734960
vt 0.243597 0.618061
vt 0.233947 0.522020
vt 0.256703 0.617405
vt 0.255522 0.520540
vt 0.260664 0.622600
vt 0.260664 0.520496
vt 0.891750 0.466804
vt 0.894684 0.480767
vt 0.383457 0.854710
vt 0.385833 0.857750
vt 0.369621 0.917861
vt 0.364798 0.920069
vt 0.280801 0.644999
vt 0.280801 0.826211
vt 0.235498 0.780908
vt 0.326104 0.644999
vt 0.326104 0.826211
vt 0.371407 0.780908
vt 0.280801 0.690302
vt 0.235498 0.735605
vt 0.326104 0.690302
vt 0.371407 0.735605
vt 0.280801 0.780908
vt 0.326104 0.780908
vt 0.280801 0.735605
vt 0.326104 0.735605
s 0
usemtl house
f 1/1/1 3/5/1 28/47/1 29/48/1
f 4/7/2 2/4/2 30/51/2 27/45/2
f 2/4/3 1/2/3 29/50/3 30/51/3
f 4/7/4 3/5/4 1/2/4 2/4/4
f 1/3/5 5/8/5 12/22/5 11/21/5
f 28/46/6 29/49/6 6/12/6
f 1/3/7 3/6/7 5/8/7
f 7/16/2 10/20/2 33/54/2 99/142/2 97/138/2 98/141/2 31/52/2
f 14/30/8 11/21/8 12/22/8 13/26/8
f 1/3/9 11/21/9 17/33/9 15/31/9
f 16/32/10 15/31/10 17/33/10 18/34/10
f 29/49/11 1/3/11 15/31/11 16/32/11
f 11/21/12 14/30/12 18/34/12 17/33/12
f 19/35/13 20/39/13 22/44/13 21/40/13
f 14/30/14 13/26/14 21/40/14 22/44/14
f 6/12/15 29/49/15 20/39/15 19/35/15
f 18/34/16 20/39/16 22/44/16
f 16/32/17 20/39/17 18/34/17
f 18/34/18 22/44/18 14/30/18
f 20/39/19 29/49/19 16/32/19
f 7/16/20 8/17/20 28/47/20 27/45/20
f 9/18/20 10/20/20 30/51/20 29/50/20
f 8/17/20 9/18/20 29/50/20 28/47/20
f 10/20/20 7/16/20 27/45/20 30/51/20
f 32/53/20 35/56/20 39/63/20 37/59/20
f 36/58/21 37/60/21 39/64/21 38/62/21
f 35/56/22 34/55/22 38/62/22 39/64/22
f 9/19/23 34/55/23 35/56/23 32/53/23
f 32/53/24 37/59/24 44/74/24 42/66/24
f 37/60/25 36/58/25 43/70/25 44/75/25
f 46/83/26 65/103/26 64/101/26 45/81/26
f 45/82/27 52/90/27 12/23/27 5/9/27
f 45/82/7 5/9/7 47/84/7
f 53/91/28 13/27/28 12/23/28 52/90/28
f 45/82/29 54/92/29 56/94/29 52/90/29
f 55/93/30 57/95/30 56/94/30 54/92/30
f 64/102/31 55/93/31 54/92/31 45/82/31
f 52/90/32 56/94/32 57/95/32 53/91/32
f 19/36/33 21/41/33 59/97/33 58/96/33
f 53/91/34 59/97/34 21/41/34 13/27/34
f 6/13/35 19/36/35 58/96/35 64/102/35
f 57/95/36 59/97/36 58/96/36
f 55/93/37 57/95/37 58/96/37
f 57/95/38 53/91/38 59/97/38
f 58/96/39 55/93/39 64/102/39
f 51/89/20 65/103/20 62/98/20 48/85/20
f 51/89/26 69/110/26 68/107/26 50/87/26
f 50/87/1 68/108/1 67/105/1 49/86/1
f 49/86/3 67/105/3 66/104/3 48/85/3
f 68/109/20 73/114/20 75/116/20 71/112/20
f 72/113/40 74/115/40 75/116/40 73/114/40
f 71/112/41 75/116/41 74/115/41 70/111/41
f 50/88/42 68/109/42 71/112/42 70/111/42
f 68/109/43 42/67/43 44/76/43 73/114/43
f 73/114/44 44/76/44 43/71/44 72/113/44
f 37/61/45 44/80/45 79/120/45 77/118/45
f 35/57/46 39/65/46 78/119/46 76/117/46
f 78/119/47 37/61/47 77/118/47
f 80/121/48 76/117/48 78/119/48 77/118/48
f 79/120/49 81/122/49 80/121/49 77/118/49
f 80/121/50 81/122/50 82/123/50 67/106/50
f 80/121/51 67/106/51 76/117/51
f 35/57/52 76/117/52 67/106/52
f 37/61/53 78/119/53 39/65/53
f 83/124/54 84/125/54 86/127/54 85/126/54
f 63/100/20 62/99/20 91/132/20 92/133/20
f 89/130/55 90/131/55 88/129/55 87/128/55
f 87/128/20 88/129/20 84/125/20 83/124/20
f 85/126/56 89/130/56 87/128/56 83/124/56
f 90/131/57 86/127/57 84/125/57 88/129/57
f 92/133/3 91/132/3 93/134/3 94/135/3
f 94/135/4 93/134/4 95/136/4 96/137/4
f 62/99/2 95/136/2 93/134/2 91/132/2
f 97/140/2 99/143/2 101/145/2 100/144/2
f 100/144/20 101/145/20 103/147/20 102/146/20
f 102/146/1 103/147/1 105/149/1 104/148/1
f 99/143/3 105/149/3 103/147/3 101/145/3
f 106/150/27 112/157/27 12/24/27 5/10/27
f 106/150/7 5/10/7 107/151/7
f 113/158/28 13/28/28 12/24/28 112/157/28
f 106/150/29 114/159/29 116/161/29 112/157/29
f 115/160/30 117/162/30 116/161/30 114/159/30
f 123/166/31 115/160/31 114/159/31 106/150/31
f 112/157/32 116/161/32 117/162/32 113/158/32
f 19/37/33 21/42/33 119/164/33 118/163/33
f 113/158/34 119/164/34 21/42/34 13/28/34
f 6/14/35 19/37/35 118/163/35 123/166/35
f 117/162/36 119/164/36 118/163/36
f 115/160/37 117/162/37 118/163/37
f 117/162/38 113/158/38 119/164/38
f 118/163/39 115/160/39 123/166/39
f 111/156/20 124/167/20 122/165/20 108/152/20
f 128/172/20 181/231/20 97/139/20 180/230/20 125/168/20 126/169/20 127/170/20
f 111/156/26 128/172/26 127/170/26 110/154/26
f 110/154/1 127/170/1 126/169/1 109/153/1
f 109/153/3 126/169/3 125/168/3 108/152/3
f 127/171/20 132/177/20 134/181/20 130/174/20
f 131/176/40 133/180/40 134/182/40 132/178/40
f 130/174/41 134/182/41 133/180/41 129/173/41
f 110/155/42 127/171/42 130/174/42 129/173/42
f 127/171/43 42/68/43 44/77/43 132/177/43
f 132/178/44 44/78/44 43/72/44 131/176/44
f 135/184/5 5/11/5 12/25/5 140/190/5
f 135/184/7 136/185/7 5/11/7
f 141/191/8 140/190/8 12/25/8 13/29/8
f 135/184/9 140/190/9 144/194/9 142/192/9
f 143/193/10 142/192/10 144/194/10 145/195/10
f 152/201/11 135/184/11 142/192/11 143/193/11
f 140/190/12 141/191/12 145/195/12 144/194/12
f 19/38/13 146/196/13 147/197/13 21/43/13
f 141/191/14 13/29/14 21/43/14 147/197/14
f 6/15/15 152/201/15 146/196/15 19/38/15
f 145/195/16 146/196/16 147/197/16
f 143/193/17 146/196/17 145/195/17
f 145/195/18 147/197/18 141/191/18
f 146/196/19 152/201/19 143/193/19
f 138/187/20 139/189/20 153/203/20 152/202/20
f 139/189/20 137/186/20 150/198/20 153/203/20
f 155/205/20 157/207/20 161/211/20 159/209/20
f 158/208/21 159/209/21 161/211/21 160/210/21
f 157/207/22 156/206/22 160/210/22 161/211/22
f 138/188/23 156/206/23 157/207/23 155/205/23
f 155/205/24 159/209/24 44/79/24 42/69/24
f 159/209/25 158/208/25 43/73/25 44/79/25
f 132/179/58 163/213/58 79/120/58 44/80/58
f 130/175/59 162/212/59 164/214/59 134/183/59
f 164/214/60 163/213/60 132/179/60
f 165/215/61 163/213/61 164/214/61 162/212/61
f 79/120/62 163/213/62 165/215/62 81/122/62
f 165/215/63 154/204/63 82/123/63 81/122/63
f 165/215/64 162/212/64 154/204/64
f 130/175/65 154/204/65 162/212/65
f 132/179/66 134/183/66 164/214/66
f 166/216/67 168/218/67 169/219/67 167/217/67
f 151/200/20 175/225/20 174/224/20 150/199/20
f 172/222/68 170/220/68 171/221/68 173/223/68
f 170/220/20 166/216/20 167/217/20 171/221/20
f 168/218/56 166/216/56 170/220/56 172/222/56
f 173/223/57 171/221/57 167/217/57 169/219/57
f 175/225/26 177/227/26 176/226/26 174/224/26
f 177/227/4 179/229/4 178/228/4 176/226/4
f 150/199/2 174/224/2 176/226/2 178/228/2
f 97/140/2 100/144/2 182/233/2 181/232/2
f 100/144/20 102/146/20 183/234/20 182/233/20
f 102/146/1 104/148/1 184/235/1 183/234/1
f 181/232/26 182/233/26 183/234/26 184/235/26
f 185/236/26 186/239/26 188/244/26 187/242/26
f 187/242/4 188/244/4 192/249/4 191/248/4
f 191/248/3 192/249/3 190/247/3 189/246/3
f 189/246/20 190/247/20 186/240/20 185/237/20
f 187/243/2 191/248/2 189/246/2 185/238/2
f 192/249/1 188/245/1 186/241/1 190/247/1
l 25 26
l 25 61
l 12 53
l 25 121
l 25 149
l 12 113
l 23 24
l 12 141
l 23 60
l 23 120
l 23 148
l 12 14
l 40 41
