# Blender 3.3.0
# www.blender.org
mtllib tree.mtl
o Cube.004
v 12.929139 26.989840 -18.862007
v 12.929139 24.666143 -21.082970
v 12.929139 22.344849 -22.069323
v 12.929139 19.530741 -22.069323
v 12.929139 17.389530 -21.082970
v 12.929139 15.621878 -18.862007
v 15.249092 26.987574 -17.766687
v 17.023243 24.655699 -19.150745
v 17.812170 22.336723 -19.764168
v 17.812170 19.538866 -19.764170
v 17.023243 17.399979 -19.150745
v 15.249092 15.624142 -17.766687
v 15.821434 26.986301 -15.308343
v 18.033157 24.649864 -14.814518
v 19.015568 22.332306 -14.595892
v 19.015568 19.543283 -14.595892
v 18.033159 17.405811 -14.814518
v 15.821434 15.625416 -15.308343
v 14.216969 26.989145 -13.335896
v 15.201877 24.662935 -11.335182
v 15.640470 22.342325 -10.447206
v 15.640470 19.533266 -10.447206
v 15.201877 17.392740 -11.335182
v 14.216969 15.622572 -13.335896
v 12.929139 14.747976 -15.954837
v 12.929139 27.696459 -15.954837
v 11.641310 26.989145 -13.335896
v 10.656401 24.662935 -11.335182
v 10.217809 22.342325 -10.447206
v 10.217809 19.533266 -10.447206
v 10.656401 17.392740 -11.335182
v 11.641310 15.622572 -13.335896
v 10.036845 26.986301 -15.308343
v 7.825120 24.649864 -14.814519
v 6.842710 22.332306 -14.595892
v 6.842710 19.543283 -14.595892
v 7.825120 17.405811 -14.814519
v 10.036845 15.625416 -15.308343
v 10.609186 26.987574 -17.766689
v 8.835037 24.655699 -19.150745
v 8.046108 22.336723 -19.764170
v 8.046108 19.538866 -19.764170
v 8.835037 17.399979 -19.150745
v 10.609186 15.624142 -17.766689
v 9.761731 24.880346 -14.225205
v 9.761731 -0.858631 -14.225205
v 9.761731 24.880346 -12.196317
v 9.761731 -0.858631 -12.196317
v 7.679801 24.880346 -14.225205
v 7.679801 -0.858631 -14.225205
v 7.679801 24.880346 -12.196317
v 7.679801 -0.858631 -12.196317
v 9.721701 38.029171 -19.825916
v 9.721701 35.052845 -22.670654
v 9.721701 32.079597 -23.934032
v 9.721701 28.475124 -23.934032
v 9.721701 25.732538 -22.670654
v 9.721701 23.468426 -19.825916
v 12.693232 38.026268 -18.422966
v 14.965667 35.039467 -20.195747
v 15.976171 32.069187 -20.981457
v 15.976171 28.485529 -20.981457
v 14.965667 25.745920 -20.195747
v 12.693232 23.471323 -18.422966
v 13.426320 38.024639 -15.274175
v 16.259226 35.031994 -14.641655
v 17.517553 32.063530 -14.361626
v 17.517553 28.491188 -14.361626
v 16.259226 25.753389 -14.641655
v 13.426320 23.472958 -15.274175
v 11.371227 38.028286 -12.747748
v 12.632755 35.048737 -10.185118
v 13.194530 32.076363 -9.047747
v 13.194530 28.478357 -9.047747
v 12.632755 25.736647 -10.185118
v 11.371227 23.469313 -12.747748
v 9.721701 22.349079 -16.102242
v 9.721701 38.934250 -16.102242
v 8.072173 38.028286 -12.747748
v 6.810644 35.048737 -10.185119
v 6.248870 32.076363 -9.047747
v 6.248870 28.478357 -9.047747
v 6.810644 25.736647 -10.185119
v 8.072173 23.469313 -12.747748
v 6.017081 38.024639 -15.274175
v 3.184175 35.031994 -14.641656
v 1.925845 32.063530 -14.361626
v 1.925845 28.491188 -14.361626
v 3.184174 25.753389 -14.641656
v 6.017081 23.472958 -15.274175
v 6.750170 38.026268 -18.422968
v 4.477735 35.039467 -20.195749
v 3.467228 32.069187 -20.981459
v 3.467228 28.485529 -20.981459
v 4.477735 25.745920 -20.195749
v 6.750170 23.471323 -18.422968
v 8.041681 32.615078 -12.468065
v 8.041681 29.638756 -15.312804
v 8.041681 26.665504 -16.576181
v 8.041681 23.061031 -16.576181
v 8.041681 20.318445 -15.312804
v 8.041681 18.054333 -12.468065
v 11.013212 32.612175 -11.065115
v 13.285647 29.625376 -12.837896
v 14.296152 26.655096 -13.623606
v 14.296152 23.071438 -13.623606
v 13.285647 20.331827 -12.837896
v 11.013212 18.057230 -11.065115
v 11.746301 32.610546 -7.916324
v 14.579206 29.617905 -7.283804
v 15.837534 26.649439 -7.003775
v 15.837534 23.077095 -7.003775
v 14.579206 20.339296 -7.283804
v 11.746301 18.058865 -7.916324
v 9.691208 32.614189 -5.389898
v 10.952736 29.634647 -2.827268
v 11.514511 26.662271 -1.689897
v 11.514511 23.064266 -1.689897
v 10.952736 20.322554 -2.827267
v 9.691208 18.055220 -5.389898
v 8.041681 16.934984 -8.744392
v 8.041681 33.520157 -8.744392
v 6.392154 32.614189 -5.389898
v 5.130625 29.634647 -2.827269
v 4.568851 26.662271 -1.689897
v 4.568851 23.064266 -1.689897
v 5.130625 20.322554 -2.827269
v 6.392154 18.055220 -5.389898
v 4.337061 32.610546 -7.916324
v 1.504155 29.617905 -7.283806
v 0.245826 26.649439 -7.003776
v 0.245826 23.077095 -7.003776
v 1.504154 20.339296 -7.283806
v 4.337061 18.058865 -7.916324
v 5.070150 32.612175 -11.065117
v 2.797715 29.625376 -12.837898
v 1.787209 26.655096 -13.623608
v 1.787209 23.071438 -13.623608
v 2.797715 20.331827 -12.837898
v 5.070150 18.057230 -11.065117
vn 0.3990 0.3588 -0.8438
vn 0.1118 0.9656 -0.2347
vn 0.2836 -0.7500 -0.5976
vn 0.4269 -0.0000 -0.9043
vn 0.3242 0.6533 -0.6841
vn 0.1356 -0.9488 -0.2852
vn 0.3947 -0.3846 -0.8344
vn 0.3039 -0.9501 -0.0703
vn 0.8966 -0.3906 -0.2084
vn 0.9070 0.3645 -0.2108
vn 0.2502 0.9665 -0.0578
vn 0.6398 -0.7542 -0.1482
vn 0.9739 -0.0000 -0.2268
vn 0.7332 0.6584 -0.1700
vn 0.7236 0.3619 0.5877
vn 0.2010 0.9661 0.1621
vn 0.5121 -0.7523 0.4145
vn 0.7757 -0.0000 0.6311
vn 0.5863 0.6561 0.4751
vn 0.2440 -0.9495 0.1971
vn 0.7155 -0.3880 0.5810
vn -0.0000 -0.7489 0.6626
vn -0.0000 -0.0000 1.0000
vn -0.0000 0.6521 0.7582
vn -0.0000 -0.9485 0.3168
vn -0.0000 -0.3832 0.9237
vn -0.0000 0.3574 0.9340
vn -0.0000 0.9654 0.2607
vn -0.5121 -0.7523 0.4145
vn -0.7757 -0.0000 0.6311
vn -0.5863 0.6561 0.4751
vn -0.2440 -0.9495 0.1971
vn -0.7155 -0.3880 0.5810
vn -0.7236 0.3619 0.5877
vn -0.2010 0.9661 0.1621
vn -0.7332 0.6584 -0.1700
vn -0.3039 -0.9501 -0.0703
vn -0.8966 -0.3906 -0.2084
vn -0.9070 0.3645 -0.2108
vn -0.2502 0.9665 -0.0578
vn -0.6398 -0.7542 -0.1482
vn -0.9739 -0.0000 -0.2268
vn -0.1356 -0.9488 -0.2852
vn -0.3947 -0.3846 -0.8344
vn -0.3990 0.3588 -0.8438
vn -0.1118 0.9656 -0.2347
vn -0.2836 -0.7500 -0.5976
vn -0.4269 -0.0000 -0.9043
vn -0.3242 0.6533 -0.6841
vn -0.0000 1.0000 -0.0000
vn -1.0000 -0.0000 -0.0000
vn -0.0000 -1.0000 -0.0000
vn 1.0000 -0.0000 -0.0000
vn -0.0000 -0.0000 -1.0000
vt 0.762766 0.831289
vt 0.709522 0.831289
vt 0.686096 0.831289
vt 0.824310 0.255513
vt 0.705332 0.515066
vt 0.815616 0.255513
vt 0.729174 0.515066
vt 0.782858 0.515066
vt 0.789220 0.887367
vt 0.756191 0.930251
vt 0.824286 0.349676
vt 0.741771 0.949321
vt 0.925148 0.054755
vt 0.815641 0.349676
vt 0.761052 0.397034
vt 0.916503 0.054755
vt 0.775879 0.416104
vt 0.809334 0.458989
vt 0.848594 0.901201
vt 0.860922 0.954662
vt 0.866598 0.978409
vt 0.925134 0.111763
vt 0.916517 0.111763
vt 0.885977 0.367946
vt 0.880693 0.391693
vt 0.868757 0.445154
vt 0.896233 0.862419
vt 0.944953 0.886225
vt 0.925165 0.205581
vt 0.966796 0.896827
vt 0.916486 0.205581
vt 0.986258 0.449528
vt 0.964795 0.460129
vt 0.916434 0.483937
vt 0.853130 0.515066
vt 0.832859 0.831289
vt 0.896233 0.800160
vt 0.944953 0.776353
vt 0.925165 0.265613
vt 0.933844 0.054755
vt 0.966796 0.765752
vt 0.916486 0.265613
vt 0.925165 0.054755
vt 0.986258 0.580603
vt 0.964795 0.570001
vt 0.916434 0.546195
vt 0.848594 0.761378
vt 0.860922 0.707917
vt 0.866598 0.684170
vt 0.933813 0.116342
vt 0.885977 0.662184
vt 0.925196 0.116342
vt 0.880693 0.638438
vt 0.868757 0.584977
vt 0.789220 0.775212
vt 0.756191 0.732328
vt 0.933827 0.209279
vt 0.741771 0.713258
vt 0.824285 0.187721
vt 0.925182 0.209279
vt 0.761052 0.633096
vt 0.815641 0.187721
vt 0.775879 0.614027
vt 0.809334 0.571143
vt 0.230302 0.866892
vt 0.808302 0.135371
vt 0.757645 0.294422
vt 0.181300 0.917216
vt 0.808302 0.055846
vt 0.757645 0.214897
vt 0.181300 0.866892
vt 0.780693 0.135371
vt 0.132258 0.917216
vt 0.780693 0.055846
vt 0.230302 0.917216
vt 0.757645 0.214897
vt 0.792171 0.294422
vt 0.757645 0.135371
vt 0.181300 0.866892
vt 0.792171 0.214897
vt 0.181300 0.917216
vt 0.757645 0.135371
vt 0.792713 0.214897
vt 0.757645 0.055846
vt 0.792713 0.135371
vt 0.132258 0.866892
vt 0.128711 0.565317
vt 0.086022 0.565317
vt 0.067240 0.565317
vt 0.883116 0.141587
vt 0.079143 0.188439
vt 0.871979 0.141587
vt 0.096248 0.188439
vt 0.134762 0.188439
vt 0.149922 0.610278
vt 0.123440 0.644661
vt 0.883084 0.262197
vt 0.111879 0.659951
vt 0.871957 0.054755
vt 0.872011 0.262197
vt 0.119117 0.103762
vt 0.860885 0.054755
vt 0.129755 0.117443
vt 0.153756 0.148208
vt 0.197527 0.621370
vt 0.207410 0.664234
vt 0.211961 0.683273
vt 0.871939 0.127774
vt 0.860902 0.127774
vt 0.208741 0.082894
vt 0.204949 0.099930
vt 0.196386 0.138284
vt 0.235722 0.590275
vt 0.274784 0.609363
vt 0.871979 0.247942
vt 0.292297 0.617863
vt 0.860863 0.247942
vt 0.280684 0.141421
vt 0.265285 0.149027
vt 0.230590 0.166107
vt 0.185175 0.188439
vt 0.184910 0.565317
vt 0.235722 0.540358
vt 0.274784 0.521270
vt 0.871979 0.324834
vt 0.894253 0.252679
vt 0.292297 0.512771
vt 0.860863 0.324834
vt 0.905369 0.252679
vt 0.280684 0.235456
vt 0.265285 0.227851
vt 0.230590 0.210771
vt 0.197527 0.509264
vt 0.207410 0.466400
vt 0.211961 0.447361
vt 0.894292 0.173795
vt 0.208741 0.293984
vt 0.905330 0.173795
vt 0.204949 0.276948
vt 0.196386 0.238595
vt 0.149922 0.520356
vt 0.123440 0.485972
vt 0.894275 0.054755
vt 0.111879 0.470683
vt 0.883084 0.054755
vt 0.905347 0.054755
vt 0.119117 0.273116
vt 0.872011 0.054755
vt 0.129755 0.259435
vt 0.153756 0.228669
vt 0.486611 0.565317
vt 0.442553 0.565317
vt 0.423168 0.565317
vt 0.894253 0.141587
vt 0.352192 0.210251
vt 0.883116 0.141587
vt 0.382730 0.210251
vt 0.451492 0.210251
vt 0.508502 0.611720
vt 0.481170 0.647205
vt 0.894220 0.262197
vt 0.469239 0.662985
vt 0.860840 0.054755
vt 0.883148 0.262197
vt 0.423561 0.059070
vt 0.849768 0.054755
vt 0.442553 0.083496
vt 0.485404 0.138424
vt 0.557633 0.623167
vt 0.567833 0.667406
vt 0.572530 0.687055
vt 0.860823 0.127773
vt 0.849786 0.127773
vt 0.583573 0.021812
vt 0.576805 0.052228
vt 0.561516 0.120705
vt 0.597053 0.591075
vt 0.637367 0.610775
vt 0.860863 0.247942
vt 0.655442 0.619548
vt 0.849746 0.247942
vt 0.712019 0.126307
vt 0.684527 0.139886
vt 0.622584 0.170380
vt 0.541500 0.210251
vt 0.544612 0.565317
vt 0.597053 0.539558
vt 0.637367 0.519858
vt 0.860863 0.324834
vt 0.905369 0.252679
vt 0.655442 0.511086
vt 0.849746 0.324834
vt 0.916486 0.252679
vt 0.712019 0.294196
vt 0.684527 0.280616
vt 0.622584 0.250123
vt 0.557633 0.507466
vt 0.567833 0.463228
vt 0.572530 0.443578
vt 0.905409 0.173795
vt 0.583573 0.398690
vt 0.916446 0.173795
vt 0.576805 0.368274
vt 0.561516 0.299799
vt 0.508502 0.518914
vt 0.481170 0.483428
vt 0.905392 0.054755
vt 0.469239 0.467648
vt 0.894220 0.054755
vt 0.916464 0.054755
vt 0.423561 0.361433
vt 0.883148 0.054755
vt 0.442553 0.337007
vt 0.485404 0.282078
s 0
usemtl tree
f 3/3/1 2/2/1 8/10/1 9/12/1
f 1/1/2 26/36/2 7/9/2
f 6/8/3 5/7/3 11/17/3 12/18/3
f 4/6/4 3/4/4 9/11/4 10/14/4
f 2/2/5 1/1/5 7/9/5 8/10/5
f 25/35/6 6/8/6 12/18/6
f 5/7/7 4/5/7 10/15/7 11/17/7
f 25/35/8 12/18/8 18/26/8
f 11/17/9 10/15/9 16/24/9 17/25/9
f 9/12/10 8/10/10 14/20/10 15/21/10
f 7/9/11 26/36/11 13/19/11
f 12/18/12 11/17/12 17/25/12 18/26/12
f 10/16/13 9/13/13 15/22/13 16/23/13
f 8/10/14 7/9/14 13/19/14 14/20/14
f 15/21/15 14/20/15 20/28/15 21/30/15
f 13/19/16 26/36/16 19/27/16
f 18/26/17 17/25/17 23/33/17 24/34/17
f 16/23/18 15/22/18 21/29/18 22/31/18
f 14/20/19 13/19/19 19/27/19 20/28/19
f 25/35/20 18/26/20 24/34/20
f 17/25/21 16/24/21 22/32/21 23/33/21
f 24/34/22 23/33/22 31/45/22 32/46/22
f 22/31/23 21/29/23 29/39/23 30/42/23
f 20/28/24 19/27/24 27/37/24 28/38/24
f 25/35/25 24/34/25 32/46/25
f 23/33/26 22/32/26 30/44/26 31/45/26
f 21/30/27 20/28/27 28/38/27 29/41/27
f 19/27/28 26/36/28 27/37/28
f 32/46/29 31/45/29 37/53/29 38/54/29
f 30/43/30 29/40/30 35/50/30 36/52/30
f 28/38/31 27/37/31 33/47/31 34/48/31
f 25/35/32 32/46/32 38/54/32
f 31/45/33 30/44/33 36/51/33 37/53/33
f 29/41/34 28/38/34 34/48/34 35/49/34
f 27/37/35 26/36/35 33/47/35
f 34/48/36 33/47/36 39/55/36 40/56/36
f 25/35/37 38/54/37 44/64/37
f 37/53/38 36/51/38 42/61/38 43/63/38
f 35/49/39 34/48/39 40/56/39 41/58/39
f 33/47/40 26/36/40 39/55/40
f 38/54/41 37/53/41 43/63/41 44/64/41
f 36/52/42 35/50/42 41/57/42 42/60/42
f 25/35/43 44/64/43 6/8/43
f 43/63/44 42/61/44 4/5/44 5/7/44
f 41/58/45 40/56/45 2/2/45 3/3/45
f 39/55/46 26/36/46 1/1/46
f 44/64/47 43/63/47 5/7/47 6/8/47
f 42/62/48 41/59/48 3/4/48 4/6/48
f 40/56/49 39/55/49 1/1/49 2/2/49
f 45/65/50 49/75/50 51/81/50 47/71/50
f 48/74/23 47/72/23 51/82/23 52/84/23
f 52/85/51 51/83/51 49/76/51 50/78/51
f 50/79/52 46/68/52 48/73/52 52/86/52
f 46/69/53 45/66/53 47/72/53 48/74/53
f 50/80/54 49/77/54 45/67/54 46/70/54
f 55/89/1 54/88/1 60/96/1 61/98/1
f 53/87/2 78/122/2 59/95/2
f 58/94/3 57/93/3 63/103/3 64/104/3
f 56/92/4 55/90/4 61/97/4 62/100/4
f 54/88/5 53/87/5 59/95/5 60/96/5
f 77/121/6 58/94/6 64/104/6
f 57/93/7 56/91/7 62/101/7 63/103/7
f 77/121/8 64/104/8 70/112/8
f 63/103/9 62/101/9 68/110/9 69/111/9
f 61/98/10 60/96/10 66/106/10 67/107/10
f 59/95/11 78/122/11 65/105/11
f 64/104/12 63/103/12 69/111/12 70/112/12
f 62/102/13 61/99/13 67/108/13 68/109/13
f 60/96/14 59/95/14 65/105/14 66/106/14
f 67/107/15 66/106/15 72/114/15 73/116/15
f 65/105/16 78/122/16 71/113/16
f 70/112/17 69/111/17 75/119/17 76/120/17
f 68/109/18 67/108/18 73/115/18 74/117/18
f 66/106/19 65/105/19 71/113/19 72/114/19
f 77/121/20 70/112/20 76/120/20
f 69/111/21 68/110/21 74/118/21 75/119/21
f 76/120/22 75/119/22 83/131/22 84/132/22
f 74/117/23 73/115/23 81/125/23 82/128/23
f 72/114/24 71/113/24 79/123/24 80/124/24
f 77/121/25 76/120/25 84/132/25
f 75/119/26 74/118/26 82/130/26 83/131/26
f 73/116/27 72/114/27 80/124/27 81/127/27
f 71/113/28 78/122/28 79/123/28
f 84/132/29 83/131/29 89/139/29 90/140/29
f 82/129/30 81/126/30 87/136/30 88/138/30
f 80/124/31 79/123/31 85/133/31 86/134/31
f 77/121/32 84/132/32 90/140/32
f 83/131/33 82/130/33 88/137/33 89/139/33
f 81/127/34 80/124/34 86/134/34 87/135/34
f 79/123/35 78/122/35 85/133/35
f 86/134/36 85/133/36 91/141/36 92/142/36
f 77/121/37 90/140/37 96/150/37
f 89/139/38 88/137/38 94/147/38 95/149/38
f 87/135/39 86/134/39 92/142/39 93/144/39
f 85/133/40 78/122/40 91/141/40
f 90/140/41 89/139/41 95/149/41 96/150/41
f 88/138/42 87/136/42 93/143/42 94/146/42
f 77/121/43 96/150/43 58/94/43
f 95/149/44 94/147/44 56/91/44 57/93/44
f 93/144/45 92/142/45 54/88/45 55/89/45
f 91/141/46 78/122/46 53/87/46
f 96/150/47 95/149/47 57/93/47 58/94/47
f 94/148/48 93/145/48 55/90/48 56/92/48
f 92/142/49 91/141/49 53/87/49 54/88/49
f 99/153/1 98/152/1 104/160/1 105/162/1
f 97/151/2 122/186/2 103/159/2
f 102/158/3 101/157/3 107/167/3 108/168/3
f 100/156/4 99/154/4 105/161/4 106/164/4
f 98/152/5 97/151/5 103/159/5 104/160/5
f 121/185/6 102/158/6 108/168/6
f 101/157/7 100/155/7 106/165/7 107/167/7
f 121/185/8 108/168/8 114/176/8
f 107/167/9 106/165/9 112/174/9 113/175/9
f 105/162/10 104/160/10 110/170/10 111/171/10
f 103/159/11 122/186/11 109/169/11
f 108/168/12 107/167/12 113/175/12 114/176/12
f 106/166/13 105/163/13 111/172/13 112/173/13
f 104/160/14 103/159/14 109/169/14 110/170/14
f 111/171/15 110/170/15 116/178/15 117/180/15
f 109/169/16 122/186/16 115/177/16
f 114/176/17 113/175/17 119/183/17 120/184/17
f 112/173/18 111/172/18 117/179/18 118/181/18
f 110/170/19 109/169/19 115/177/19 116/178/19
f 121/185/20 114/176/20 120/184/20
f 113/175/21 112/174/21 118/182/21 119/183/21
f 120/184/22 119/183/22 127/195/22 128/196/22
f 118/181/23 117/179/23 125/189/23 126/192/23
f 116/178/24 115/177/24 123/187/24 124/188/24
f 121/185/25 120/184/25 128/196/25
f 119/183/26 118/182/26 126/194/26 127/195/26
f 117/180/27 116/178/27 124/188/27 125/191/27
f 115/177/28 122/186/28 123/187/28
f 128/196/29 127/195/29 133/203/29 134/204/29
f 126/193/30 125/190/30 131/200/30 132/202/30
f 124/188/31 123/187/31 129/197/31 130/198/31
f 121/185/32 128/196/32 134/204/32
f 127/195/33 126/194/33 132/201/33 133/203/33
f 125/191/34 124/188/34 130/198/34 131/199/34
f 123/187/35 122/186/35 129/197/35
f 130/198/36 129/197/36 135/205/36 136/206/36
f 121/185/37 134/204/37 140/214/37
f 133/203/38 132/201/38 138/211/38 139/213/38
f 131/199/39 130/198/39 136/206/39 137/208/39
f 129/197/40 122/186/40 135/205/40
f 134/204/41 133/203/41 139/213/41 140/214/41
f 132/202/42 131/200/42 137/207/42 138/210/42
f 121/185/43 140/214/43 102/158/43
f 139/213/44 138/211/44 100/155/44 101/157/44
f 137/208/45 136/206/45 98/152/45 99/153/45
f 135/205/46 122/186/46 97/151/46
f 140/214/47 139/213/47 101/157/47 102/158/47
f 138/212/48 137/209/48 99/154/48 100/156/48
f 136/206/49 135/205/49 97/151/49 98/152/49
